# 3ds Max Wavefront OBJ Exporter v0.97b - (c)2007 guruware
# File Created: 17.06.2012 20:54:46

#
# object Spacedragon_59
#

v  0.0489 0.3029 1.5217
v  0.1476 0.2085 1.0889
v  0.0984 0.3513 1.5111
v  0.0981 0.1602 1.0995
v  -0.0984 0.3513 1.5111
v  -0.0981 0.1602 1.0995
v  -0.0489 0.3029 1.5217
v  -0.1476 0.2085 1.0889
v  0.0984 0.4468 1.4902
v  0.0981 0.4486 1.0364
v  0.0489 0.4952 1.4796
v  0.1476 0.4003 1.0470
v  -0.0984 0.4468 1.4902
v  -0.0981 0.4486 1.0364
v  -0.1476 0.4003 1.0470
v  -0.0489 0.4952 1.4796
v  0.0148 0.5702 1.2516
v  -0.0148 0.5702 1.2516
v  0.0148 0.4545 1.0925
v  0.0098 0.5681 1.2319
v  0.0148 0.5699 1.2486
v  0.0098 0.4528 1.0758
v  0.0098 0.5505 1.2537
v  0.0148 0.4640 1.1828
v  0.0148 0.5634 1.2523
v  0.0098 0.4652 1.1940
v  -0.0098 0.5505 1.2537
v  -0.0148 0.4640 1.1828
v  -0.0098 0.4652 1.1940
v  -0.0148 0.5634 1.2523
v  -0.0148 0.4545 1.0925
v  -0.0098 0.5681 1.2319
v  -0.0098 0.4528 1.0758
v  -0.0148 0.5699 1.2486
# 34 vertices

vn 0.0000 -0.2137 -0.9769
vn -0.0000 0.2137 0.9769
vn 0.0000 0.9945 -0.1045
vn -0.9939 0.0236 0.1079
vn 0.9939 0.0236 0.1079
vn -0.0000 -0.9473 0.3203
vn 0.6985 -0.6492 0.3009
vn -0.6985 -0.6492 0.3009
vn 0.6985 0.7156 0.0024
vn -0.6985 0.7156 0.0024
vn -0.0000 -0.5733 0.8194
vn 0.0000 0.8042 -0.5943
vn -0.0000 0.1045 0.9945
vn 1.0000 -0.0000 0.0000
vn -1.0000 0.0000 -0.0000
vn 0.8660 0.4021 -0.2972
vn 0.8660 -0.2866 0.4097
vn -0.8660 -0.2866 0.4097
vn -0.8660 0.4021 -0.2972
# 19 vertex normals

vt 0.4074 0.7600 -0.1767
vt 0.2400 0.9598 0.0447
vt 0.4477 0.8002 0.1767
vt 0.1998 1.0000 -0.0447
vt 0.2877 0.8002 0.1767
vt 0.0402 1.0000 -0.0447
vt 0.3279 0.7600 -0.1767
vt 0.0000 0.9598 0.0447
vt 0.4477 0.8798 -0.1767
vt 0.1998 0.7600 -0.0447
vt 0.4074 0.9200 -0.1767
vt 0.2400 0.8002 -0.0447
vt 0.2877 0.8798 -0.1767
vt 0.0402 0.7600 -0.0447
vt 0.0000 0.8002 -0.0447
vt 0.3279 0.9200 -0.1767
vt 0.9400 0.1808 -0.6969
vt 0.9342 0.1672 -0.6969
vt 0.0793 0.1657 -0.5245
vt 0.9258 0.1863 -0.6969
vt 0.9390 0.1836 -0.6969
vt 0.0643 0.1684 0.5245
vt 0.9449 0.1439 -0.6969
vt 0.1522 0.1346 -0.5245
vt 0.9444 0.1771 -0.6969
vt 0.1526 0.1342 -0.5245
vt 0.9370 0.1590 0.6969
vt 0.1364 0.1181 -0.5245
vt 0.1464 0.1189 -0.5245
vt 0.9349 0.1655 -0.6969
vt 0.0684 0.1456 -0.5245
vt 0.9239 0.1728 -0.6969
vt 0.0578 0.1544 -0.5245
vt 0.9343 0.1681 -0.6969
vt 0.4917 0.2300 -0.0128
vt 0.1822 0.4297 -0.5245
vt 0.4539 0.1876 -0.5245
vt 0.2200 0.4721 -0.5245
vt 0.5969 0.3163 -0.5245
vt 0.3384 0.5787 -0.5245
vt 0.5507 0.2831 -0.5245
vt 0.3845 0.6118 -0.5245
vt 0.4079 0.1228 -0.5245
vt 0.0623 0.2502 -0.5245
vt 0.3802 0.0732 -0.5245
vt 0.0899 0.2998 -0.5245
vt 0.6661 0.3553 -0.5245
vt 0.0000 0.1002 -0.5245
vt 0.5756 0.7123 -0.5245
vt 0.5233 0.6900 -0.5245
vt 0.3494 0.0000 -0.5245
vt 0.7184 0.3775 -0.5245
vt 0.8447 0.0150 -0.6969
vt 0.9589 0.1214 -0.6969
vt 0.9615 0.1363 -0.6969
vt 0.8422 0.0000 -0.6969
vt 0.7660 0.1752 -0.6969
vt 0.9476 0.1679 -0.6969
vt 0.8630 0.0915 -0.6969
vt 0.9564 0.1402 -0.6969
vt 0.8648 0.1021 -0.6969
vt 0.8472 0.1218 -0.6969
vt 0.8569 0.1172 -0.6969
vt 0.7804 0.1518 -0.6969
vt 0.7671 0.1590 0.3479
# 65 texture coords

g Spacedragon_59
f 14/14/1 8/8/1 15/15/1 
f 12/12/1 14/14/1 10/10/1 
f 2/2/1 14/14/1 12/12/1 
f 4/4/1 14/14/1 2/2/1 
f 6/6/1 14/14/1 4/4/1 
f 8/8/1 14/14/1 6/6/1 
f 9/9/2 1/1/2 3/3/2 
f 5/5/2 16/16/2 13/13/2 
f 5/5/2 11/11/2 16/16/2 
f 7/7/2 11/11/2 5/5/2 
f 1/1/2 11/11/2 7/7/2 
f 1/1/2 9/9/2 11/11/2 
f 24/24/3 10/44/3 19/19/3 
f 33/33/3 10/44/3 14/48/3 
f 22/22/3 10/44/3 33/33/3 
f 10/44/3 16/51/3 11/45/3 
f 19/19/3 10/44/3 22/22/3 
f 14/48/3 31/31/3 33/33/3 
f 16/51/3 31/31/3 14/48/3 
f 16/51/3 28/28/3 31/31/3 
f 16/51/3 29/29/3 28/28/3 
f 16/51/3 26/26/3 29/29/3 
f 10/44/3 26/26/3 16/51/3 
f 10/44/3 24/24/3 26/26/3 
f 8/42/4 13/47/4 15/50/4 
f 13/47/4 8/42/4 5/39/4 
f 3/37/5 12/46/5 9/43/5 
f 12/46/5 3/37/5 2/36/5 
f 4/38/6 7/41/6 6/40/6 
f 7/41/6 4/38/6 1/35/6 
f 1/35/7 2/36/7 3/37/7 
f 2/36/7 1/35/7 4/38/7 
f 5/39/8 6/40/8 7/41/8 
f 6/40/8 5/39/8 8/42/8 
f 9/43/9 10/44/9 11/45/9 
f 10/44/9 9/43/9 12/46/9 
f 13/47/10 14/49/10 15/50/10 
f 14/49/10 13/47/10 16/52/10 
f 26/61/11 27/27/11 29/63/11 
f 27/27/11 26/61/11 23/23/11 
f 20/20/12 33/65/12 32/32/12 
f 33/65/12 20/20/12 22/57/12 
f 18/18/3 32/32/3 34/34/3 
f 21/21/3 18/18/3 17/17/3 
f 20/20/3 18/18/3 21/21/3 
f 32/32/3 18/18/3 20/20/3 
f 25/25/13 27/27/13 23/58/13 
f 30/30/13 17/17/13 18/18/13 
f 30/30/13 25/25/13 17/17/13 
f 27/27/13 25/25/13 30/30/13 
f 25/25/14 21/21/14 17/17/14 
f 21/55/14 24/59/14 19/53/14 
f 21/55/14 25/60/14 24/59/14 
f 34/34/15 30/30/15 18/18/15 
f 28/62/15 34/34/15 31/64/15 
f 30/30/15 34/34/15 28/62/15 
f 19/53/16 20/54/16 21/55/16 
f 20/54/16 19/53/16 22/56/16 
f 23/23/17 24/59/17 25/60/17 
f 24/59/17 23/23/17 26/61/17 
f 27/27/18 28/62/18 29/63/18 
f 28/62/18 27/27/18 30/30/18 
f 31/64/19 32/32/19 33/65/19 
f 32/32/19 31/64/19 34/34/19 
# 64 faces

