# 3ds Max Wavefront OBJ Exporter v0.97b - (c)2007 guruware
# File Created: 17.06.2012 20:50:39

#
# object Spacedragon_52
#

v  0.0338 0.3331 -1.2164
v  0.0189 0.4238 -1.1195
v  0.0718 0.4238 -1.1195
v  0.0098 0.3331 -1.2164
v  0.0197 0.3827 -1.0494
v  0.0197 0.4231 -1.1183
v  0.0689 0.3740 -1.0346
v  0.0098 0.3740 -1.0346
v  0.1281 0.4114 -1.0984
v  0.1476 0.3901 -1.1054
v  0.1476 0.2241 -1.0357
v  0.0689 0.2470 -0.9813
v  0.0954 0.2387 -1.2272
v  0.0795 0.2274 -1.2791
v  0.0939 0.2492 -1.2370
v  0.1275 0.3293 -1.1514
v  0.1275 0.2793 -1.1305
v  0.0952 0.1577 -1.1939
v  0.0560 0.0706 -1.2966
v  0.0394 0.0870 -1.3624
v  -0.0795 0.2274 -1.2791
v  -0.0954 0.2387 -1.2272
v  -0.0939 0.2492 -1.2370
v  -0.1476 0.3901 -1.1054
v  -0.1275 0.3293 -1.1514
v  -0.1476 0.2241 -1.0357
v  -0.1275 0.2793 -1.1305
v  -0.0952 0.1577 -1.1939
v  -0.0560 0.0706 -1.2966
v  -0.0394 0.0870 -1.3624
v  -0.0689 0.3740 -1.0346
v  -0.1281 0.4114 -1.0984
v  -0.0689 0.2470 -0.9813
v  -0.0098 0.3740 -1.0346
v  -0.0338 0.3331 -1.2164
v  -0.0026 0.3331 -1.2164
v  -0.1118 0.2241 -1.0357
v  0.1118 0.2241 -1.0357
v  -0.0197 0.3901 -1.1555
v  -0.0197 0.4238 -1.1195
v  -0.0718 0.4238 -1.1195
v  -0.0197 0.3827 -1.0494
v  -0.0357 0.0552 -1.2348
v  0.0357 0.0552 -1.2348
v  -0.0098 0.5978 -0.9369
v  0.0098 0.5978 -0.9369
v  -0.0181 0.6160 -0.9445
v  0.0181 0.6160 -0.9445
v  0.0197 0.6144 -0.9482
v  -0.0026 0.5942 -0.9964
v  0.0197 0.6087 -0.9619
v  0.0098 0.5942 -0.9964
v  -0.0197 0.6025 -0.9765
v  -0.0197 0.6144 -0.9482
v  -0.0893 0.2426 -1.2179
v  -0.1120 0.2722 -1.1475
v  -0.0887 0.2426 -1.2179
v  -0.0874 0.2556 -1.2301
v  -0.0868 0.2556 -1.2301
v  -0.1120 0.3158 -1.1658
v  0.1120 0.2722 -1.1475
v  0.0893 0.2426 -1.2179
v  0.0887 0.2426 -1.2179
v  0.0874 0.2556 -1.2301
v  0.0868 0.2556 -1.2301
v  0.1120 0.3158 -1.1658
v  0.1135 0.3088 -1.1922
v  -0.1135 0.3088 -1.1922
v  0.0737 0.1397 -1.1352
v  -0.0737 0.1397 -1.1352
v  -0.0098 0.4859 -0.9857
v  0.0098 0.4859 -0.9857
v  -0.0026 0.4636 -1.1064
v  0.0098 0.4636 -1.1064
v  -0.0197 0.4963 -1.0660
v  -0.0197 0.4986 -0.9988
v  0.0197 0.5159 -1.0401
v  0.0197 0.4986 -0.9988
v  0.1270 0.3325 -1.1543
v  0.0922 0.2495 -1.2430
v  0.0941 0.2364 -1.2307
v  0.1140 0.3055 -1.1894
v  0.1342 0.2952 -1.1133
v  0.1342 0.3414 -1.1327
v  -0.1140 0.3055 -1.1894
v  -0.0922 0.2495 -1.2430
v  0.0098 0.2511 -1.2650
v  -0.0026 0.2713 -1.2531
v  -0.0623 0.2394 -0.9994
v  -0.0197 0.5960 -0.9717
v  -0.0197 0.4926 -1.0615
v  0.0131 0.5892 -0.9932
v  0.0189 0.5167 -1.0412
v  0.0159 0.4275 -1.1232
v  0.0131 0.4607 -1.1014
# 95 vertices

vn 0.0000 0.7300 -0.6834
vn 0.0000 0.8628 0.5055
vn 0.6000 0.3096 0.7377
vn 0.9564 -0.1131 -0.2695
vn -0.9564 -0.1131 -0.2695
vn -0.6000 0.3096 0.7377
vn 0.0000 0.3870 0.9221
vn 0.0000 0.5103 -0.8600
vn -0.0000 -0.9221 0.3870
vn -0.0000 -0.7624 0.6471
vn -0.0000 -0.9703 -0.2418
vn -0.8315 -0.5380 0.1388
vn 0.8315 -0.5380 0.1388
vn 0.3936 0.5890 -0.7058
vn -0.3936 0.5890 -0.7058
vn -0.0000 -0.4002 0.9164
vn 0.0000 0.9221 -0.3870
vn 0.0000 0.6444 -0.7647
vn 0.0000 0.5567 -0.8307
vn -1.0000 0.0000 -0.0000
vn 1.0000 -0.0000 0.0000
vn 0.8660 -0.2001 0.4582
vn -0.8660 -0.2001 0.4582
vn 0.8660 0.3222 -0.3824
vn -0.5000 0.5580 -0.6623
vn 0.0000 0.6834 0.7300
vn -0.0000 -0.7300 0.6834
vn -0.8234 0.4470 0.3495
vn -0.7660 -0.2487 -0.5927
vn 0.8234 0.4470 0.3495
vn 0.7660 -0.2487 -0.5927
vn -0.0000 0.9221 -0.3870
# 32 vertex normals

vt 0.7430 0.2984 -0.4806
vt 0.6147 0.2957 -0.4806
vt 0.6429 0.2552 -0.4806
vt 0.7453 0.3146 -0.4806
vt 0.5827 0.1725 -0.4806
vt 0.6055 0.2922 -0.4806
vt 0.6301 0.1730 -0.4806
vt 0.5892 0.1371 -0.4806
vt 0.6621 0.2246 -0.4806
vt 0.6773 0.2207 -0.4806
vt 0.7286 0.1567 -0.4806
vt 0.6984 0.1246 -0.4806
vt 0.7964 0.2351 -0.4806
vt 0.8201 0.2579 -0.4806
vt 0.7930 0.2452 -0.4806
vt 0.7223 0.2323 -0.4806
vt 0.7411 0.2077 -0.4806
vt 0.8235 0.1871 -0.4806
vt 0.9337 0.2168 -0.4531
vt 0.9152 0.2512 -0.4806
vt 0.8448 0.3452 -0.4806
vt 0.8369 0.3795 -0.4806
vt 0.8274 0.3725 -0.4806
vt 0.7201 0.4530 -0.4806
vt 0.7650 0.4272 -0.4806
vt 0.8234 0.5245 -0.4806
vt 0.7980 0.4482 -0.4806
vt 0.8963 0.4050 -0.4806
vt 0.9528 0.3074 -0.4806
vt 0.9248 0.2858 -0.4806
vt 0.6844 0.5239 -0.4806
vt 0.7028 0.4531 -0.4806
vt 0.7821 0.5866 -0.4806
vt 0.5825 0.1098 -0.4806
vt 0.7514 0.3454 -0.4806
vt 0.7475 0.3231 -0.4806
vt 0.8387 0.5415 -0.4806
vt 0.7299 0.1465 -0.4806
vt 0.6733 0.3619 -0.4806
vt 0.6156 0.3972 -0.4806
vt 0.6701 0.4243 -0.4806
vt 0.6194 0.5204 -0.4806
vt 0.9390 0.1119 -0.4806
vt 0.9102 0.1618 -0.4806
vt 0.0537 0.2260 -0.4806
vt 0.0709 0.2690 -0.4806
vt 0.0000 0.2320 -0.4806
vt 0.0445 0.3120 -0.4806
vt 0.0561 0.3205 -0.4806
vt 0.1743 0.4150 -0.4806
vt 0.0752 0.4211 -0.4806
vt 0.1571 0.3888 0.4806
vt 0.1533 0.4703 -0.4806
vt 0.1017 0.5121 -0.4806
vt 0.8311 0.3851 -0.4806
vt 0.8043 0.4326 -0.4806
vt 0.8310 0.3861 -0.4806
vt 0.8246 0.3785 -0.4806
vt 0.8241 0.3781 -0.4806
vt 0.7787 0.4180 -0.4806
vt 0.7506 0.2148 -0.4806
vt 0.7896 0.2344 -0.4806
vt 0.7889 0.2342 -0.4806
vt 0.7881 0.2423 -0.4806
vt 0.7878 0.2429 -0.4806
vt 0.7371 0.2346 -0.4806
vt 0.7443 0.2441 -0.4806
vt 0.7797 0.4010 -0.4806
vt 0.8118 0.1470 -0.4806
vt 0.9223 0.4524 -0.4806
vt 0.4047 0.5636 -0.4806
vt 0.3469 0.1833 -0.4806
vt 0.5534 0.3545 -0.4806
vt 0.5529 0.3322 -0.4806
vt 0.4605 0.4086 -0.4806
vt 0.3919 0.5238 -0.4806
vt 0.3760 0.3179 -0.4806
vt 0.3447 0.2279 -0.4806
vt 0.7211 0.2336 -0.4806
vt 0.7951 0.2480 -0.4806
vt 0.7979 0.2363 -0.4806
vt 0.7457 0.2421 -0.4806
vt 0.7258 0.2044 -0.4806
vt 0.7098 0.2253 -0.4806
vt 0.7830 0.4029 -0.4806
vt 0.8279 0.3686 -0.4806
vt 0.8111 0.3009 -0.4806
vt 0.7964 0.3109 -0.4806
vt 0.7014 0.0330 -0.4806
vt 0.1639 0.4847 -0.4806
vt 0.4613 0.4188 -0.4806
vt 0.1668 0.3700 -0.4806
vt 0.3719 0.3196 -0.4806
vt 0.6081 0.3074 -0.4806
vt 0.5473 0.3223 -0.4806
vt 1.0000 0.1364 -0.4806
vt 0.5681 0.0666 -0.4806
vt 0.6690 0.0330 -0.4806
vt 0.6196 0.5508 -0.4806
vt 0.7483 0.0000 -0.4806
vt 0.9841 0.3543 -0.4806
vt 0.1249 0.5585 -0.4806
vt 0.0936 0.5170 -0.4806
vt 0.0430 0.4500 -0.4806
vt 0.0483 0.4414 -0.4806
vt 0.0869 0.3377 -0.4806
vt 0.8423 0.0438 -0.4806
vt 0.3371 0.1413 -0.4806
vt 0.8019 0.5922 -0.4806
# 109 texture coords

g Spacedragon_52
f 2/2/1 1/1/1 4/4/1 
f 6/6/2 3/3/2 2/2/2 
f 5/5/2 3/3/2 6/6/2 
f 12/12/3 9/9/3 7/7/3 
f 83/83/4 11/11/4 17/17/4 
f 22/22/5 26/26/5 27/27/5 
f 32/32/6 33/33/6 31/31/6 
f 33/98/7 34/34/7 31/97/7 
f 21/21/8 87/87/8 30/30/8 
f 37/37/9 26/26/9 28/28/9 
f 35/35/1 39/39/1 36/36/1 
f 42/42/2 41/41/2 32/32/2 
f 70/107/10 44/44/10 69/69/10 
f 29/29/11 20/20/11 19/19/11 
f 28/28/12 70/70/12 37/37/12 
f 69/69/13 18/18/13 38/38/13 
f 1/1/14 67/67/14 14/14/14 
f 68/68/15 35/35/15 21/21/15 
f 71/108/16 46/46/16 45/45/16 
f 45/45/7 48/48/7 47/47/7 
f 51/51/17 54/54/17 49/105/17 
f 73/73/18 4/4/19 36/36/19 
f 91/91/20 76/76/20 90/90/20 
f 78/78/21 51/106/21 49/49/21 
f 46/46/22 49/49/22 48/48/22 
f 78/78/22 46/46/22 72/72/22 
f 54/54/23 45/102/23 47/103/23 
f 76/76/23 45/102/23 54/54/23 
f 93/93/24 92/92/24 77/77/24 
f 73/73/25 39/39/25 75/75/25 
f 55/55/17 56/56/17 57/57/17 
f 57/57/26 58/58/26 55/55/26 
f 60/60/27 58/58/27 59/59/27 
f 57/57/5 60/60/5 59/59/5 
f 22/22/28 58/58/28 23/23/28 
f 60/60/29 27/27/29 25/25/29 
f 61/61/17 62/62/17 63/63/17 
f 63/63/26 64/64/26 65/65/26 
f 13/13/30 64/64/30 62/62/30 
f 64/64/27 66/66/27 65/65/27 
f 66/66/4 63/63/4 65/65/4 
f 66/66/31 17/17/31 61/61/31 
f 5/5/2 7/7/2 9/9/2 
f 12/12/3 10/10/3 9/9/3 
f 14/14/4 19/19/4 20/20/4 
f 18/18/4 17/17/4 11/11/4 
f 79/79/4 15/15/4 80/80/4 
f 81/81/4 15/15/4 13/13/4 
f 18/18/4 81/81/4 13/13/4 
f 14/14/4 80/80/4 81/81/4 
f 82/82/4 14/14/4 67/67/4 
f 83/83/4 16/16/4 84/84/4 
f 10/10/4 83/83/4 84/84/4 
f 82/82/4 79/79/4 80/80/4 
f 10/10/4 82/82/4 67/67/4 
f 10/10/4 16/16/4 79/79/4 
f 24/24/5 27/27/5 26/26/5 
f 85/85/5 24/24/5 68/68/5 
f 21/21/5 29/29/5 28/28/5 
f 21/21/5 85/85/5 68/68/5 
f 22/22/5 28/28/5 26/26/5 
f 85/85/5 23/23/5 25/25/5 
f 86/86/5 22/22/5 23/23/5 
f 33/33/6 24/24/6 26/26/6 
f 8/8/7 12/12/7 7/7/7 
f 87/87/8 1/1/8 14/14/8 
f 87/87/8 20/20/8 30/30/8 
f 88/88/8 4/4/19 87/87/8 
f 88/88/8 35/35/8 36/36/19 
f 38/38/9 11/11/9 12/12/9 
f 89/89/9 12/12/9 33/98/9 
f 37/37/9 33/33/9 26/26/9 
f 89/89/9 38/38/9 12/12/9 
f 39/39/1 41/41/1 40/40/1 
f 42/42/2 31/31/2 34/99/2 
f 70/107/10 38/38/10 37/100/10 
f 29/96/11 44/44/11 43/43/11 
f 28/28/12 43/101/12 70/70/12 
f 18/18/13 44/44/13 19/19/13 
f 1/1/14 9/9/14 10/10/14 
f 68/68/15 32/32/15 41/41/15 
f 72/72/16 34/34/16 8/8/16 
f 49/105/17 47/103/17 48/104/17 
f 51/51/17 50/50/32 53/53/32 
f 74/74/18 50/50/18 52/52/18 
f 90/90/20 54/54/20 53/53/20 
f 40/40/20 75/75/20 39/39/20 
f 91/91/20 53/53/20 75/75/20 
f 91/91/20 42/42/20 76/76/20 
f 77/77/21 5/5/21 6/6/21 
f 72/72/22 5/5/22 78/78/22 
f 71/71/23 42/42/23 34/99/23 
f 51/106/24 92/92/24 52/52/24 
f 93/93/24 6/6/24 2/2/24 
f 4/4/24 94/94/24 2/2/24 
f 92/92/24 74/74/24 52/52/24 
f 95/95/24 93/93/24 2/2/24 
f 95/95/24 94/94/24 74/74/24 
f 75/75/25 50/50/25 73/73/25 
f 56/56/17 22/22/17 27/27/17 
f 60/60/27 23/23/27 58/58/27 
f 61/61/17 13/13/17 62/62/17 
f 66/66/27 15/15/27 16/16/27 
f 1/1/1 2/2/1 3/3/1 
f 3/3/2 5/5/2 9/9/2 
f 34/34/7 33/98/7 8/8/7 
f 87/87/8 21/21/8 88/88/8 
f 41/41/2 42/42/2 40/40/2 
f 44/44/10 70/107/10 43/43/10 
f 20/20/11 29/29/11 30/30/11 
f 67/67/14 1/1/14 10/10/14 
f 35/35/15 68/68/15 41/41/15 
f 46/46/16 71/108/16 72/72/16 
f 48/48/7 45/45/7 46/46/7 
f 54/54/17 51/51/17 53/53/32 
f 4/4/19 73/73/18 74/74/18 
f 51/106/21 78/78/21 77/77/21 
f 46/46/22 78/78/22 49/49/22 
f 45/102/23 76/76/23 71/71/23 
f 39/39/25 73/73/25 36/36/25 
f 58/58/26 57/57/26 59/59/26 
f 60/60/5 57/57/5 56/56/5 
f 58/58/28 22/22/28 55/55/28 
f 27/27/29 60/60/29 56/56/29 
f 64/64/26 63/63/26 62/62/26 
f 64/64/30 13/13/30 15/15/30 
f 63/63/4 66/66/4 61/61/4 
f 17/17/31 66/66/31 16/16/31 
f 7/7/2 5/5/2 8/8/2 
f 10/10/3 12/12/3 11/11/3 
f 19/19/4 14/14/4 18/18/4 
f 17/17/4 18/18/4 13/13/4 
f 15/15/4 79/79/4 16/16/4 
f 15/15/4 81/81/4 80/80/4 
f 81/81/4 18/18/4 14/14/4 
f 14/14/4 82/82/4 80/80/4 
f 16/16/4 83/83/4 17/17/4 
f 83/83/4 10/10/4 11/11/4 
f 82/82/4 10/10/4 79/79/4 
f 16/16/4 10/10/4 84/84/4 
f 27/27/5 24/24/5 25/25/5 
f 24/24/5 85/85/5 25/25/5 
f 29/29/5 21/21/5 30/30/5 
f 85/85/5 21/21/5 86/86/5 
f 28/28/5 22/22/5 21/21/5 
f 23/23/5 85/85/5 86/86/5 
f 22/22/5 86/86/5 21/21/5 
f 24/24/6 33/33/6 32/32/6 
f 12/12/7 8/8/7 33/98/7 
f 1/1/8 87/87/8 4/4/19 
f 20/20/8 87/87/8 14/14/8 
f 4/4/19 88/88/8 36/36/19 
f 35/35/8 88/88/8 21/21/8 
f 11/11/9 38/38/9 18/18/9 
f 33/33/9 37/37/9 89/109/9 
f 38/38/9 89/89/9 37/100/9 
f 41/41/1 39/39/1 35/35/1 
f 31/31/2 42/42/2 32/32/2 
f 38/38/10 70/107/10 69/69/10 
f 44/44/11 29/96/11 19/19/11 
f 43/101/12 28/28/12 29/29/12 
f 44/44/13 18/18/13 69/69/13 
f 9/9/14 1/1/14 3/3/14 
f 32/32/15 68/68/15 24/24/15 
f 34/34/16 72/72/16 71/108/16 
f 47/103/17 49/105/17 54/54/17 
f 50/50/32 51/51/17 52/52/17 
f 50/50/18 74/74/18 73/73/18 
f 54/54/20 90/90/20 76/76/20 
f 75/75/20 40/40/20 91/91/20 
f 53/53/20 91/91/20 90/90/20 
f 42/42/20 91/91/20 40/40/20 
f 5/5/21 77/77/21 78/78/21 
f 5/5/22 72/72/22 8/8/22 
f 42/42/23 71/71/23 76/76/23 
f 92/92/24 51/106/24 77/77/24 
f 6/6/24 93/93/24 77/77/24 
f 94/94/24 4/4/24 74/74/24 
f 74/74/24 92/92/24 95/95/24 
f 93/93/24 95/95/24 92/92/24 
f 94/94/24 95/95/24 2/2/24 
f 50/50/25 75/75/25 53/53/25 
f 22/22/17 56/56/17 55/55/17 
f 23/23/27 60/60/27 25/25/27 
f 13/13/17 61/61/17 17/17/17 
f 15/15/27 66/66/27 64/64/27 
# 186 faces

