# 3ds Max Wavefront OBJ Exporter v0.97b - (c)2007 guruware
# File Created: 17.06.2012 21:01:17

#
# object Spacedragon_62
#

v  -0.0000 0.5812 3.2515
v  -0.0098 0.5714 3.2526
v  0.0098 0.5714 3.2526
v  -0.0323 0.5196 2.7633
v  -0.0394 0.4695 2.5705
v  -0.0323 0.5098 2.7644
v  -0.0197 0.5471 3.1163
v  -0.0394 0.5184 2.5653
v  -0.0197 0.5568 3.1153
v  0.0394 0.4695 2.5705
v  0.0323 0.5198 2.7653
v  0.0323 0.5100 2.7663
v  0.0197 0.5471 3.1163
v  0.0394 0.5184 2.5653
v  0.0197 0.5568 3.1153
v  -0.0000 0.5812 3.2513
v  -0.0246 0.5331 2.5638
v  0.0246 0.5331 2.5638
v  0.0246 0.4548 2.5721
v  -0.0246 0.4548 2.5721
v  0.0098 0.5616 3.2536
v  -0.0098 0.5616 3.2536
v  -0.0000 0.5518 3.2546
v  -0.0148 0.5432 2.7092
v  -0.0148 0.5370 2.6203
v  0.0098 0.5358 2.6031
v  -0.0098 0.5358 2.6031
v  0.0148 0.5370 2.6203
v  0.0148 0.5432 2.7092
v  0.0098 0.5441 2.7210
v  -0.0098 0.5441 2.7210
v  -0.0000 0.5518 3.2544
v  -0.0098 0.6279 2.7906
v  0.0098 0.6279 2.7906
v  0.0098 0.6461 2.7696
v  -0.0098 0.6461 2.7696
v  -0.0148 0.6475 2.7892
v  -0.0148 0.6473 2.7868
v  0.0148 0.6473 2.7868
v  0.0148 0.6475 2.7892
v  0.0148 0.6402 2.7897
v  -0.0148 0.6402 2.7897
v  0.2442 0.5425 2.9802
v  0.2442 0.5327 2.9812
v  0.0019 0.6655 4.1405
v  -0.2224 0.5783 3.3174
v  -0.0323 0.6655 4.1405
v  -0.2454 0.5426 2.9812
v  0.2226 0.5782 3.3165
v  0.0362 0.6654 4.1404
v  -0.2224 0.5685 3.3185
v  0.0019 0.6557 4.1415
v  -0.0323 0.6557 4.1415
v  -0.2454 0.5329 2.9823
v  0.2226 0.5684 3.3175
v  0.0362 0.6557 4.1414
v  -0.1273 0.6219 3.7290
v  0.1294 0.6218 3.7284
v  -0.1273 0.6121 3.7300
v  0.1294 0.6120 3.7294
v  0.0013 0.6341 3.8448
v  -0.0706 0.5783 3.3175
v  -0.0289 0.6158 3.6716
v  0.0708 0.5783 3.3177
v  0.0481 0.6168 3.6815
v  0.0013 0.6243 3.8459
v  -0.0706 0.5685 3.3185
v  -0.0289 0.6060 3.6726
v  0.0708 0.5685 3.3187
v  0.0481 0.6070 3.6825
# 70 vertices

vn -0.0000 0.1053 0.9944
vn -0.9994 0.0038 0.0355
vn 0.9994 0.0038 0.0355
vn -0.7062 0.7076 -0.0242
vn 0.7062 0.7076 -0.0242
vn -0.0000 -0.1053 -0.9944
vn 0.0000 -0.1053 -0.9944
vn 0.0000 0.9976 -0.0698
vn -0.0000 0.9976 -0.0698
vn -0.0000 -0.9900 0.1408
vn -0.7062 -0.6970 0.1246
vn 0.7062 -0.6970 0.1246
vn -0.0000 -0.6390 0.7692
vn 0.0000 0.8336 -0.5524
vn -0.0000 0.0698 0.9976
vn 1.0000 -0.0000 0.0000
vn -1.0000 0.0000 -0.0000
vn 0.8660 0.4168 -0.2762
vn 0.8660 -0.3195 0.3846
vn -0.8660 -0.3195 0.3846
vn -0.8660 0.4168 -0.2762
vn 0.7139 -0.0738 -0.6964
vn 0.0000 0.9944 -0.1053
vn -0.0000 -0.9944 0.1053
vn -0.7169 -0.0734 -0.6933
vn -0.9977 0.0072 0.0676
vn -0.9892 0.0154 0.1455
vn -0.9746 0.0236 0.2225
vn 0.0022 0.1053 0.9944
vn 0.0043 0.1053 0.9944
vn 0.9756 0.0231 0.2183
vn 0.9899 0.0150 0.1412
vn 0.9980 0.0067 0.0633
# 33 vertex normals

vt 0.4876 0.4348 -1.0806
vt 0.4812 0.4383 -1.0806
vt 0.4869 0.4274 -1.0806
vt 0.8731 0.1308 -1.0806
vt 0.9987 0.1407 -1.0806
vt 0.8712 0.1363 -1.0806
vt 0.6452 0.1519 -1.0806
vt 0.7672 0.5837 -1.0806
vt 0.5385 0.4731 -1.0806
vt 1.0000 0.1994 -0.9226
vt 0.7165 0.5214 -1.0806
vt 0.7197 0.5183 -1.0806
vt 0.6451 0.1833 -1.0806
vt 0.9975 0.2312 -1.0806
vt 0.5541 0.4518 -1.0806
vt 0.4867 0.4345 -1.0806
vt 0.7697 0.5752 -1.0806
vt 0.7974 0.5755 -1.0806
vt 0.9998 0.1858 -1.0806
vt 0.9995 0.1542 -1.0806
vt 0.5566 0.1736 -1.0806
vt 0.5564 0.1607 -1.0806
vt 0.5597 0.1671 -1.0806
vt 0.7599 0.5686 -1.0806
vt 0.7672 0.5705 -1.0806
vt 0.7699 0.5693 -1.0806
vt 0.7728 0.5662 -1.0806
vt 0.7695 0.5677 -1.0806
vt 0.7518 0.5654 -1.0806
vt 0.7527 0.5652 -1.0806
vt 0.7541 0.5657 -1.0806
vt 0.5582 0.1671 -1.0806
vt 0.7555 0.5588 -1.0806
vt 0.7551 0.5584 -1.0806
vt 0.7568 0.5578 -1.0806
vt 0.7562 0.5587 -1.0806
vt 0.7553 0.5583 -1.0806
vt 0.7552 0.5583 -1.0806
vt 0.7559 0.5568 -1.0806
vt 0.7559 0.5569 -1.0806
vt 0.7556 0.5568 -1.0806
vt 0.7553 0.5582 -1.0806
vt 0.6665 0.3789 -1.0806
vt 0.6711 0.3773 -1.0806
vt 0.0067 0.1845 -1.0806
vt 0.5109 0.0221 -1.0806
vt 0.0088 0.1615 -1.0806
vt 0.7279 0.0000 -1.0806
vt 0.5071 0.3093 -1.0806
vt 0.0079 0.2061 -1.0806
vt 0.5120 0.0281 -1.0806
vt 0.0130 0.1846 -1.0806
vt 0.0125 0.1643 -1.0806
vt 0.7261 0.0054 -1.0806
vt 0.5105 0.3044 -1.0806
vt 0.0141 0.2058 1.0806
vt 0.2112 0.3931 -1.0806
vt 0.2674 0.2533 -1.0806
vt 0.2599 0.0931 -1.0806
vt 0.2674 0.2475 -1.0806
vt 0.1741 0.2976 -1.0806
vt 0.4368 0.4520 -1.0806
vt 0.2629 0.3523 -1.0806
vt 0.4690 0.3831 -1.0806
vt 0.2745 0.3083 -1.0806
vt 0.1930 0.1744 -1.0806
vt 0.5143 0.1229 -1.0806
vt 0.2973 0.1517 -1.0806
vt 0.5137 0.2111 -1.0806
vt 0.2934 0.1981 -1.0806
vt 0.6852 0.5493 -1.0806
vt 0.7567 0.6031 -1.0806
vt 0.0000 0.6864 -0.0968
vt 0.0000 0.6582 0.0968
vt 0.0451 0.6864 -0.0968
vt 0.8703 0.2019 -1.0806
vt 0.0451 0.6582 0.0968
vt 0.8025 0.5672 -1.0806
vt 0.0085 0.6498 -0.0968
vt 0.0366 0.6498 -0.0968
vt 0.0366 0.6948 -0.0968
vt 0.0085 0.6948 -0.0968
vt 0.7681 0.5687 -1.0806
vt 0.7831 0.5628 -1.0806
vt 0.7687 0.5706 -1.0806
vt 0.7772 0.5629 -1.0806
vt 0.7455 0.5671 -1.0806
vt 0.7431 0.5487 -1.0806
vt 0.7481 0.5509 -1.0806
vt 0.7547 0.5579 -1.0806
vt 0.7549 0.5570 -1.0806
vt 0.7555 0.5574 -1.0806
vt 0.7244 0.3306 -1.0806
vt 0.6686 0.3743 -1.0806
vt 0.0070 0.2318 -1.0806
vt 0.4061 0.5246 -1.0806
vt 0.0000 0.2514 -1.0806
vt 0.5521 0.5982 -1.0806
vt 0.0142 0.2121 -1.0806
vt 0.2583 0.0873 -1.0806
# 100 texture coords

g Spacedragon_62
f 1/1/1 2/2/1 3/3/1 
f 5/5/2 6/6/2 4/4/2 
f 14/78/3 11/11/3 12/12/3 
f 9/9/4 17/17/4 8/8/4 
f 15/15/5 18/18/5 16/16/5 
f 18/80/6 20/82/6 17/79/7 
f 21/21/1 22/22/1 23/23/1 
f 16/16/8 24/24/9 17/17/8 
f 20/20/10 19/19/10 32/32/10 
f 7/7/11 20/20/11 32/32/11 
f 13/13/12 19/19/12 10/10/12 
f 33/33/13 30/30/13 34/34/13 
f 36/36/14 26/26/14 27/85/14 
f 39/39/8 36/36/8 38/38/8 
f 41/41/15 33/90/15 34/91/15 
f 39/39/16 29/29/16 28/87/16 
f 24/24/17 38/38/17 25/25/17 
f 35/35/18 28/28/18 26/26/18 
f 29/29/19 34/34/19 30/30/19 
f 24/24/20 33/33/20 42/42/20 
f 36/36/21 25/25/21 38/38/21 
f 43/43/22 12/12/22 11/11/22 
f 63/63/23 64/64/23 62/62/23 
f 68/68/24 70/70/24 59/59/24 
f 48/48/25 6/6/25 54/54/25 
f 54/54/26 46/46/27 48/48/26 
f 59/59/28 47/47/28 57/100/28 
f 47/47/1 52/52/29 45/45/29 
f 50/50/30 52/52/29 56/56/30 
f 58/58/31 55/55/32 49/49/32 
f 55/55/32 43/43/33 49/49/32 
f 4/71/2 8/8/2 5/72/2 
f 12/76/3 10/10/3 14/14/3 
f 16/16/4 2/2/4 1/1/4 
f 16/16/5 3/3/5 15/15/5 
f 17/79/7 5/73/6 8/74/7 
f 18/80/6 10/75/7 19/81/7 
f 26/84/8 17/17/8 27/27/8 
f 17/17/8 25/83/9 27/27/8 
f 16/16/8 31/31/8 24/24/9 
f 28/86/8 18/18/8 26/84/8 
f 16/16/8 30/89/9 31/31/8 
f 29/88/8 18/18/8 28/86/8 
f 32/32/11 22/22/11 7/7/11 
f 32/32/12 21/21/12 23/23/12 
f 39/39/8 37/37/8 40/40/8 
f 42/42/15 40/40/15 37/37/15 
f 39/39/16 41/92/16 29/29/16 
f 38/38/17 42/42/17 37/37/17 
f 15/15/23 43/43/23 11/11/23 
f 9/9/23 48/98/23 46/96/23 
f 61/61/23 47/97/23 45/95/23 
f 61/61/23 50/99/23 58/58/23 
f 46/96/23 2/2/23 9/9/23 
f 63/63/23 46/96/23 57/57/23 
f 49/49/23 3/3/23 64/64/23 
f 64/64/23 2/2/23 62/62/23 
f 65/65/23 49/49/23 64/64/23 
f 65/65/23 61/61/23 58/58/23 
f 65/65/23 63/63/23 57/57/23 
f 13/13/24 44/93/24 55/55/24 
f 7/7/24 54/54/24 6/6/24 
f 66/66/24 56/56/24 52/52/24 
f 66/66/24 53/53/24 59/59/24 
f 51/51/24 22/22/24 67/67/24 
f 68/68/24 51/51/24 67/67/24 
f 55/55/24 21/21/24 13/13/24 
f 69/69/24 22/22/24 21/21/24 
f 70/70/24 55/55/24 60/60/24 
f 70/70/24 66/66/24 59/59/24 
f 68/68/24 69/69/24 70/70/24 
f 57/100/28 51/51/27 59/59/28 
f 60/60/31 50/99/31 56/56/31 
f 6/6/2 5/5/2 7/7/2 
f 11/11/3 14/78/3 15/15/3 
f 17/17/4 9/9/4 16/16/4 
f 18/18/5 15/15/5 14/78/5 
f 20/82/6 18/80/6 19/81/7 
f 20/20/11 7/7/11 5/5/11 
f 19/19/12 13/13/12 32/32/12 
f 30/30/13 33/33/13 31/31/13 
f 26/26/14 36/36/14 35/35/14 
f 36/36/8 39/39/8 35/35/8 
f 33/90/15 41/41/15 42/42/15 
f 28/28/18 35/35/18 39/39/18 
f 34/34/19 29/29/19 41/92/19 
f 33/33/20 24/24/20 31/31/20 
f 25/25/21 36/36/21 27/85/21 
f 12/12/22 43/43/22 44/44/22 
f 64/64/23 63/63/23 65/65/23 
f 6/6/25 48/48/25 4/4/25 
f 46/46/27 54/54/26 51/51/27 
f 47/47/28 59/59/28 53/53/28 
f 52/52/29 47/47/1 53/53/1 
f 52/52/29 50/50/30 45/45/29 
f 55/55/32 58/58/31 60/60/31 
f 43/43/33 55/55/32 44/94/33 
f 8/8/2 4/71/2 9/9/2 
f 10/10/3 12/76/3 13/13/3 
f 2/2/4 16/16/4 9/9/4 
f 3/3/5 16/16/5 1/1/5 
f 5/73/6 17/79/7 20/82/6 
f 10/75/7 18/80/6 14/77/6 
f 17/17/8 26/84/8 18/18/8 
f 25/83/9 17/17/8 24/24/9 
f 30/89/9 16/16/8 29/88/8 
f 18/18/8 29/88/8 16/16/8 
f 22/22/11 32/32/11 23/23/11 
f 21/21/12 32/32/12 13/13/12 
f 37/37/8 39/39/8 38/38/8 
f 40/40/15 42/42/15 41/41/15 
f 41/92/16 39/39/16 40/40/16 
f 42/42/17 38/38/17 24/24/17 
f 43/43/23 15/15/23 49/49/23 
f 48/98/23 9/9/23 4/71/23 
f 47/97/23 61/61/23 57/57/23 
f 50/99/23 61/61/23 45/95/23 
f 2/2/23 46/96/23 62/62/23 
f 46/96/23 63/63/23 62/62/23 
f 3/3/23 49/49/23 15/15/23 
f 2/2/23 64/64/23 3/3/23 
f 49/49/23 65/65/23 58/58/23 
f 61/61/23 65/65/23 57/57/23 
f 44/93/24 13/13/24 12/76/24 
f 54/54/24 7/7/24 51/51/24 
f 56/56/24 66/66/24 60/60/24 
f 53/53/24 66/66/24 52/52/24 
f 22/22/24 51/51/24 7/7/24 
f 51/51/24 68/68/24 59/59/24 
f 21/21/24 55/55/24 69/69/24 
f 22/22/24 69/69/24 67/67/24 
f 55/55/24 70/70/24 69/69/24 
f 66/66/24 70/70/24 60/60/24 
f 69/69/24 68/68/24 67/67/24 
f 51/51/27 57/100/28 46/46/27 
f 50/99/31 60/60/31 58/58/31 
# 136 faces

