# 3ds Max Wavefront OBJ Exporter v0.97b - (c)2007 guruware
# File Created: 17.06.2012 20:51:47

#
# object wirbel_1
#

v  0.0738 0.2475 -0.8572
v  0.0197 0.2384 -1.0588
v  0.0689 0.2868 -1.0501
v  0.0246 0.1990 -0.8658
v  -0.0738 0.2475 -0.8572
v  -0.0197 0.2384 -1.0588
v  -0.0246 0.1990 -0.8658
v  -0.0689 0.2868 -1.0501
v  0.0738 0.2959 -0.8486
v  0.0197 0.3740 -1.0346
v  0.0246 0.3443 -0.8399
v  0.0689 0.3256 -1.0432
v  -0.0246 0.3443 -0.8399
v  -0.0689 0.3256 -1.0432
v  -0.0738 0.2959 -0.8486
v  -0.0197 0.3740 -1.0346
v  0.0148 0.4353 -0.7837
v  -0.0148 0.4353 -0.7837
v  0.0148 0.3654 -0.9781
v  0.0098 0.4383 -0.8032
v  0.0148 0.4356 -0.7856
v  0.0098 0.3681 -0.9956
v  0.0148 0.4276 -0.7849
v  0.0098 0.3503 -0.8789
v  0.0148 0.3521 -0.8910
v  0.0098 0.4159 -0.7867
v  -0.0148 0.4276 -0.7849
v  -0.0098 0.3503 -0.8789
v  -0.0098 0.4159 -0.7867
v  -0.0148 0.3521 -0.8910
v  -0.0148 0.3654 -0.9781
v  -0.0098 0.4383 -0.8032
v  -0.0098 0.3681 -0.9956
v  -0.0148 0.4356 -0.7856
# 34 vertices

vn 0.0000 0.1754 -0.9845
vn -0.0000 -0.1754 0.9845
vn 0.0000 0.9886 0.1508
vn -0.9997 0.0044 -0.0246
vn 0.9997 0.0044 -0.0246
vn -0.0000 -0.9798 -0.2000
vn 0.7067 -0.6895 -0.1588
vn -0.7067 -0.6895 -0.1588
vn 0.7067 0.7019 0.0892
vn -0.7067 0.7019 0.0892
vn -0.0000 -0.8148 0.5798
vn 0.0000 0.9394 -0.3427
vn -0.0000 -0.1508 0.9886
vn 1.0000 -0.0000 0.0000
vn -1.0000 0.0000 -0.0000
vn 0.8660 0.4697 -0.1713
vn 0.8660 -0.4074 0.2899
vn -0.8660 -0.4074 0.2899
vn -0.8660 0.4697 -0.1713
# 19 vertex normals

vt 0.6144 0.4404 0.0827
vt 0.7730 0.8414 -0.2159
vt 0.6848 0.7533 -0.2159
vt 0.5263 0.5285 -0.0827
vt 0.6144 0.7047 0.0827
vt 0.7730 0.9119 -0.2159
vt 0.5263 0.6165 -0.0827
vt 0.6848 1.0000 -0.2159
vt 0.7024 0.4404 -0.0827
vt 0.5263 0.8414 -0.2159
vt 0.7906 0.5285 -0.0827
vt 0.6144 0.7533 0.2159
vt 0.7906 0.6165 -0.0827
vt 0.6144 1.0000 0.2159
vt 0.7024 0.7047 -0.0827
vt 0.5263 0.9119 -0.2159
vt 0.0000 0.7620 -0.7678
vt 0.0303 0.7514 -0.7678
vt 0.7542 0.1079 -0.1055
vt 0.1031 0.8398 -0.7678
vt 0.0688 0.8363 -0.7678
vt 0.7598 0.0754 -0.1055
vt 0.0070 0.7732 -0.7678
vt 0.7809 0.2859 -0.1055
vt 0.7700 0.2649 -0.1055
vt 0.0232 0.7831 -0.7678
vt 0.0357 0.7559 -0.7678
vt 0.8160 0.2824 -0.1055
vt 0.0467 0.7660 0.7678
vt 0.8226 0.2597 -0.1055
vt 0.8068 0.1026 -0.1055
vt 0.0255 0.7275 -0.7678
vt 0.7949 0.0719 -0.1055
vt 0.0295 0.7515 -0.7678
vt 0.5495 0.3724 0.1055
vt 0.4161 0.0230 -0.1055
vt 0.5406 0.0199 -0.1055
vt 0.4249 0.3755 -0.1055
vt 0.2122 0.3724 0.1055
vt 0.3456 0.0230 -0.1055
vt 0.3368 0.3755 -0.1055
vt 0.2210 0.0199 -0.1055
vt 0.6374 0.3680 -0.1055
vt 0.7353 0.0070 -0.1055
vt 0.7617 0.3587 -0.1055
vt 0.6110 0.0164 -0.1055
vt 0.8493 0.3499 -0.1055
vt 0.0000 0.3587 -0.1055
vt 0.1507 0.0164 -0.1055
vt 0.1243 0.3680 -0.1055
vt 0.8053 0.0000 -0.1055
vt 0.0264 0.0070 -0.1055
vt 0.0651 0.8375 -0.7678
vt 0.4277 0.6868 -0.7678
vt 0.4635 0.6929 0.4296
vt 0.0668 0.8206 -0.7678
vt 0.2335 0.6668 -0.7678
vt 0.2596 0.6700 -0.7678
vt 0.0683 0.7957 -0.7678
vt 0.2093 0.6396 -0.7678
vt 0.2091 0.6174 -0.7678
vt 0.2232 0.4717 -0.7678
vt 0.1151 0.8750 -0.7678
vt 0.4776 0.7277 -0.7678
vt 0.2245 0.4404 -0.7678
# 65 texture coords

g wirbel_1
f 3/3/1 10/10/1 12/12/1 
f 14/14/1 6/6/1 8/8/1 
f 16/16/1 6/6/1 14/14/1 
f 16/16/1 2/2/1 6/6/1 
f 16/16/1 3/3/1 2/2/1 
f 10/10/1 3/3/1 16/16/1 
f 4/4/2 5/5/2 7/7/2 
f 9/9/2 4/4/2 1/1/2 
f 11/11/2 4/4/2 9/9/2 
f 13/13/2 4/4/2 11/11/2 
f 15/15/2 4/4/2 13/13/2 
f 5/5/2 4/4/2 15/15/2 
f 16/51/3 31/31/3 33/33/3 
f 33/33/3 10/44/3 16/51/3 
f 22/22/3 10/44/3 33/33/3 
f 19/19/3 10/44/3 22/22/3 
f 19/19/3 11/45/3 10/44/3 
f 25/25/3 11/45/3 19/19/3 
f 24/24/3 11/45/3 25/25/3 
f 24/24/3 13/47/3 11/45/3 
f 28/28/3 13/47/3 24/24/3 
f 30/30/3 13/47/3 28/28/3 
f 30/30/3 16/51/3 13/47/3 
f 31/31/3 16/51/3 30/30/3 
f 14/49/4 5/39/4 15/50/4 
f 5/39/4 14/49/4 8/42/4 
f 1/35/5 12/46/5 9/43/5 
f 12/46/5 1/35/5 3/37/5 
f 6/40/6 4/38/6 7/41/6 
f 4/38/6 6/40/6 2/36/6 
f 1/35/7 2/36/7 3/37/7 
f 2/36/7 1/35/7 4/38/7 
f 5/39/8 6/40/8 7/41/8 
f 6/40/8 5/39/8 8/42/8 
f 9/43/9 10/44/9 11/45/9 
f 10/44/9 9/43/9 12/46/9 
f 13/48/10 14/49/10 15/50/10 
f 14/49/10 13/48/10 16/52/10 
f 24/57/11 29/29/11 28/60/11 
f 29/29/11 24/57/11 26/59/11 
f 20/20/12 33/64/12 32/63/12 
f 33/64/12 20/20/12 22/55/12 
f 20/20/3 17/53/3 21/21/3 
f 17/17/3 34/34/3 18/18/3 
f 17/17/3 32/32/3 34/34/3 
f 17/53/3 20/20/3 32/63/3 
f 23/23/13 29/29/13 26/26/13 
f 27/27/13 17/17/13 18/18/13 
f 27/27/13 23/23/13 17/17/13 
f 29/29/13 23/23/13 27/27/13 
f 23/56/14 21/21/14 17/53/14 
f 21/21/14 25/58/14 19/54/14 
f 21/21/14 23/56/14 25/58/14 
f 34/34/15 27/27/15 18/18/15 
f 30/61/15 34/34/15 31/62/15 
f 27/27/15 34/34/15 30/61/15 
f 19/54/16 20/20/16 21/21/16 
f 20/20/16 19/54/16 22/55/16 
f 23/56/17 24/57/17 25/58/17 
f 24/57/17 23/56/17 26/59/17 
f 27/27/18 28/60/18 29/29/18 
f 28/60/18 27/27/18 30/61/18 
f 31/62/19 32/32/19 33/65/19 
f 32/32/19 31/62/19 34/34/19 
# 64 faces

