# 3ds Max Wavefront OBJ Exporter v0.97b - (c)2007 guruware
# File Created: 17.06.2012 20:52:07

#
# object wirbel_2
#

v  0.0837 0.2144 -0.6567
v  0.0245 0.1977 -0.8567
v  0.0738 0.2466 -0.8511
v  0.0344 0.1655 -0.6623
v  -0.0837 0.2144 -0.6567
v  -0.0245 0.1977 -0.8567
v  -0.0344 0.1655 -0.6623
v  -0.0738 0.2466 -0.8511
v  0.0344 0.3317 -0.6432
v  0.0738 0.2954 -0.8455
v  0.0245 0.3443 -0.8399
v  0.0837 0.2828 -0.6488
v  -0.0837 0.2828 -0.6488
v  -0.0245 0.3443 -0.8399
v  -0.0738 0.2954 -0.8455
v  -0.0344 0.3317 -0.6432
v  0.0148 0.4271 -0.5927
v  -0.0148 0.4271 -0.5927
v  0.0148 0.3407 -0.7827
v  0.0098 0.4284 -0.6123
v  0.0148 0.4272 -0.5944
v  0.0098 0.3418 -0.8006
v  0.0148 0.4191 -0.5932
v  0.0098 0.3342 -0.6826
v  0.0148 0.3350 -0.6950
v  0.0098 0.4074 -0.5939
v  -0.0148 0.4191 -0.5932
v  -0.0098 0.3342 -0.6826
v  -0.0098 0.4074 -0.5939
v  -0.0148 0.3350 -0.6950
v  -0.0148 0.3407 -0.7827
v  -0.0098 0.4284 -0.6123
v  -0.0098 0.3418 -0.8006
v  -0.0148 0.4272 -0.5944
# 34 vertices

vn 0.0000 0.1138 -0.9935
vn -0.0000 0.1138 -0.9935
vn -0.0000 -0.1138 0.9935
vn 0.0000 0.9979 0.0641
vn -0.9988 0.0057 -0.0496
vn 0.9988 0.0057 -0.0496
vn -0.0000 -0.9866 -0.1633
vn 0.7053 -0.6927 -0.1504
vn -0.7053 -0.6927 -0.1504
vn 0.7053 0.7088 0.0102
vn -0.7053 0.7088 0.0102
vn -0.0000 -0.7711 0.6367
vn 0.0000 0.9086 -0.4177
vn 0.0000 0.9979 0.0640
vn -0.0000 0.9979 0.0641
vn -0.0000 -0.0641 0.9979
vn 1.0000 -0.0000 0.0000
vn -1.0000 0.0000 -0.0000
vn 0.8660 0.4543 -0.2089
vn 0.8660 -0.3855 0.3184
vn -0.8660 -0.3855 0.3184
vn -0.8660 0.4543 -0.2089
# 22 vertex normals

vt 0.7176 0.7330 0.0786
vt 0.6842 1.0000 -0.2086
vt 0.7677 0.9164 -0.2086
vt 0.8011 0.6494 -0.0786
vt 0.7176 0.4492 0.0786
vt 0.6009 1.0000 -0.2086
vt 0.8011 0.5327 -0.0786
vt 0.5173 0.9164 -0.2086
vt 0.5173 0.6494 -0.0786
vt 0.7677 0.8332 0.2086
vt 0.0826 0.0000 -0.0977
vt 0.6009 0.7330 -0.0786
vt 0.6009 0.4492 -0.0786
vt 0.6009 0.7496 -0.2086
vt 0.5173 0.8332 0.2086
vt 0.5173 0.5327 -0.0786
vt 0.0000 0.7450 -0.6788
vt 0.0427 0.7508 -0.6788
vt 0.0796 0.0986 -0.0977
vt 0.1156 0.8275 -0.6788
vt 0.0840 0.8231 -0.6788
vt 0.0938 0.0705 -0.0977
vt 0.0860 0.8103 -0.6788
vt 0.0541 0.2671 -0.0977
vt 0.0501 0.2447 -0.0977
vt 0.0898 0.7898 -0.6788
vt 0.0473 0.7590 -0.6788
vt 0.0868 0.2737 -0.0977
vt 0.0678 0.7647 0.6788
vt 0.0991 0.2546 -0.0977
vt 0.1287 0.1086 -0.0977
vt 0.0421 0.7225 -0.6788
vt 0.1265 0.0771 -0.0977
vt 0.0412 0.7511 -0.6788
vt 0.7000 0.3767 0.0977
vt 0.5652 0.0483 -0.0977
vt 0.6833 0.0424 -0.0977
vt 0.5819 0.3826 -0.0977
vt 0.3473 0.3767 0.0977
vt 0.4820 0.0483 -0.0977
vt 0.4653 0.3826 -0.0977
vt 0.3639 0.0424 -0.0977
vt 0.0000 0.3243 -0.0977
vt 0.9329 0.3475 -0.0977
vt 0.7661 0.0341 -0.0977
vt 0.8830 0.0165 -0.0977
vt 0.6842 0.7496 -0.2086
vt 0.8160 0.3651 -0.0977
vt 0.2312 0.3651 -0.0977
vt 0.1642 0.0165 -0.0977
vt 0.2811 0.0341 -0.0977
vt 0.1143 0.3475 -0.0977
vt 0.0797 0.8229 -0.6788
vt 0.4235 0.6994 -0.6788
vt 0.4559 0.7064 0.3106
vt 0.2476 0.6731 -0.6788
vt 0.2711 0.6775 -0.6788
vt 0.0465 0.7751 -0.6788
vt 0.2266 0.6463 -0.6788
vt 0.2284 0.6238 -0.6788
vt 0.2522 0.4801 -0.6788
vt 0.1249 0.8605 -0.6788
vt 0.4674 0.7390 -0.6788
vt 0.2555 0.4492 -0.6788
# 64 texture coords

g wirbel_2
f 15/15/1 6/6/1 8/8/2 
f 10/10/1 14/14/1 11/47/1 
f 10/10/1 15/15/1 14/14/1 
f 3/3/1 15/15/1 10/10/1 
f 2/2/1 15/15/1 3/3/1 
f 6/6/1 15/15/1 2/2/1 
f 1/1/3 7/7/3 4/4/3 
f 13/13/3 9/9/3 16/16/3 
f 5/5/3 9/9/3 13/13/3 
f 5/5/3 12/12/3 9/9/3 
f 7/7/3 12/12/3 5/5/3 
f 7/7/3 1/1/3 12/12/3 
f 14/50/4 31/31/4 33/33/4 
f 33/33/4 11/11/4 14/50/4 
f 22/22/4 11/11/4 33/33/4 
f 19/19/4 11/11/4 22/22/4 
f 19/19/4 9/43/4 11/11/4 
f 25/25/4 9/43/4 19/19/4 
f 24/24/4 9/43/4 25/25/4 
f 24/24/4 16/52/4 9/43/4 
f 28/28/4 16/52/4 24/24/4 
f 30/30/4 16/52/4 28/28/4 
f 30/30/4 14/50/4 16/52/4 
f 31/31/4 14/50/4 30/30/4 
f 15/51/5 5/39/5 13/49/5 
f 5/39/5 15/51/5 8/42/5 
f 1/35/6 10/45/6 12/48/6 
f 10/45/6 1/35/6 3/37/6 
f 2/36/7 7/41/7 6/40/7 
f 7/41/7 2/36/7 4/38/7 
f 1/35/8 2/36/8 3/37/8 
f 2/36/8 1/35/8 4/38/8 
f 5/39/9 6/40/9 7/41/9 
f 6/40/9 5/39/9 8/42/9 
f 9/44/10 10/45/10 11/46/10 
f 10/45/10 9/44/10 12/48/10 
f 13/49/11 14/50/11 15/51/11 
f 14/50/11 13/49/11 16/52/11 
f 28/59/12 26/26/12 29/29/12 
f 26/26/12 28/59/12 24/56/12 
f 20/20/13 33/63/13 32/62/13 
f 33/63/13 20/20/13 22/55/13 
f 20/20/4 17/53/4 21/21/14 
f 17/17/4 34/34/14 18/18/14 
f 17/17/4 32/32/15 34/34/14 
f 17/53/4 20/20/4 32/62/15 
f 23/23/16 29/29/16 26/26/16 
f 27/27/16 17/17/16 18/18/16 
f 27/58/16 23/23/16 17/53/16 
f 29/29/16 23/23/16 27/58/16 
f 23/23/17 21/21/17 17/53/17 
f 21/21/17 25/57/17 19/54/17 
f 21/21/17 23/23/17 25/57/17 
f 34/34/18 27/27/18 18/18/18 
f 30/60/18 34/34/18 31/61/18 
f 27/27/18 34/34/18 30/60/18 
f 19/54/19 20/20/19 21/21/19 
f 20/20/19 19/54/19 22/55/19 
f 23/23/20 24/56/20 25/57/20 
f 24/56/20 23/23/20 26/26/20 
f 27/27/21 28/59/21 29/29/21 
f 28/59/21 27/27/21 30/60/21 
f 31/61/22 32/32/22 33/64/22 
f 32/32/22 31/61/22 34/34/22 
# 64 faces

