# 3ds Max Wavefront OBJ Exporter v0.97b - (c)2007 guruware
# File Created: 17.06.2012 20:52:38

#
# object Spacedragon_56
#

v  0.1230 0.1432 -0.2614
v  0.0488 0.1320 -0.4596
v  0.0984 0.1814 -0.4561
v  0.0734 0.0937 -0.2649
v  -0.0734 0.0937 -0.2649
v  -0.0984 0.1814 -0.4561
v  -0.0488 0.1320 -0.4596
v  -0.1230 0.1432 -0.2614
v  0.0734 0.3392 -0.2478
v  0.0984 0.2789 -0.4493
v  0.0488 0.3283 -0.4459
v  0.1230 0.2897 -0.2512
v  -0.0734 0.3392 -0.2478
v  -0.0984 0.2789 -0.4493
v  -0.1230 0.2897 -0.2512
v  -0.0488 0.3283 -0.4459
v  0.0148 0.4403 -0.2012
v  -0.0148 0.4403 -0.2012
v  0.0148 0.3315 -0.3877
v  0.0098 0.4392 -0.2211
v  0.0148 0.4402 -0.2025
v  0.0098 0.3305 -0.4062
v  0.0148 0.4317 -0.2008
v  0.0098 0.3370 -0.2874
v  0.0148 0.3363 -0.3005
v  0.0098 0.4205 -0.2002
v  -0.0148 0.4317 -0.2008
v  -0.0098 0.3370 -0.2874
v  -0.0098 0.4205 -0.2002
v  -0.0148 0.3363 -0.3005
v  -0.0148 0.3315 -0.3877
v  -0.0098 0.4392 -0.2211
v  -0.0098 0.3305 -0.4062
v  -0.0148 0.4402 -0.2025
# 34 vertices

vn 0.0000 0.0696 -0.9976
vn -0.0000 -0.0696 0.9976
vn 0.0000 0.9985 -0.0546
vn -0.9923 0.0086 -0.1237
vn 0.9923 0.0086 -0.1237
vn -0.0000 -0.9812 -0.1928
vn 0.6963 -0.6825 -0.2221
vn -0.6963 -0.6825 -0.2221
vn 0.6963 0.7067 -0.1252
vn -0.6963 0.7067 -0.1252
vn -0.0000 -0.7225 0.6914
vn 0.0000 0.8624 -0.5062
vn -0.0000 0.0546 0.9985
vn 1.0000 -0.0000 0.0000
vn -1.0000 0.0000 -0.0000
vn 0.8660 0.4312 -0.2531
vn 0.8660 -0.3612 0.3457
vn -0.8660 -0.3612 0.3457
vn -0.8660 0.4312 -0.2531
# 19 vertex normals

vt 0.6650 0.4854 0.0649
vt 0.2369 0.8040 -0.2430
vt 0.1772 0.7444 -0.2430
vt 0.6053 0.4258 -0.0649
vt 0.4286 0.4258 -0.0649
vt 0.1772 0.9812 -0.2430
vt 0.2369 0.9215 -0.2430
vt 0.3689 0.4854 0.0649
vt 0.6053 0.7219 -0.0649
vt 0.0597 0.7444 0.2430
vt 0.0000 0.8040 -0.2430
vt 0.6650 0.6622 -0.0649
vt 0.4286 0.7219 -0.0649
vt 0.0597 0.9812 0.2430
vt 0.3689 0.6622 -0.0649
vt 0.0000 0.9215 -0.2430
vt 0.0022 0.4459 -0.5506
vt 0.0156 0.4485 -0.5506
vt 0.8267 0.0980 -0.0755
vt 0.0031 0.4778 -0.5506
vt 0.0000 0.4526 -0.5506
vt 0.8213 0.0755 -0.0755
vt 0.0042 0.4520 -0.5506
vt 0.8891 0.2016 -0.0755
vt 0.8764 0.1906 -0.0755
vt 0.0089 0.4579 -0.5506
vt 0.0177 0.4499 -0.5506
vt 0.9100 0.1904 -0.0755
vt 0.0205 0.4547 0.5506
vt 0.9077 0.1737 -0.0755
vt 0.8579 0.0812 -0.0755
vt 0.0273 0.4436 -0.5506
vt 0.8421 0.0643 -0.0755
vt 0.0147 0.4496 -0.5506
vt 0.5943 0.3536 0.0755
vt 0.4809 0.1253 -0.0755
vt 0.5647 0.1149 -0.0755
vt 0.5106 0.3640 -0.0755
vt 0.3338 0.3640 -0.0755
vt 0.2797 0.1149 -0.0755
vt 0.3634 0.1253 -0.0755
vt 0.2501 0.3536 0.0755
vt 0.8444 0.2799 -0.0755
vt 0.6787 0.0862 -0.0755
vt 0.7573 0.0557 -0.0755
vt 0.7657 0.3105 -0.0755
vt 1.0000 0.1962 -0.0755
vt 0.0000 0.2799 -0.0755
vt 0.1657 0.0862 -0.0755
vt 0.0787 0.3105 -0.0755
vt 0.8608 0.0000 -0.0755
vt 0.0870 0.0557 -0.0755
vt 0.1749 0.6731 -0.5506
vt 0.0212 0.4258 -0.5506
vt 0.1783 0.6980 -0.5506
vt 0.3226 0.4271 -0.5506
vt 0.0063 0.4599 -0.5506
vt 0.1502 0.5427 -0.5506
vt 0.1528 0.5607 -0.5506
vt 0.0156 0.4661 -0.5506
vt 0.1645 0.5198 -0.5506
vt 0.1856 0.5130 -0.5506
vt 0.2951 0.4679 -0.5506
vt 0.3225 0.4547 0.2474
# 64 texture coords

g Spacedragon_56
f 2/2/1 10/10/1 3/3/1 
f 14/14/1 7/7/1 6/6/1 
f 14/14/1 2/2/1 7/7/1 
f 16/16/1 2/2/1 14/14/1 
f 11/11/1 2/2/1 16/16/1 
f 10/10/1 2/2/1 11/11/1 
f 1/1/2 5/5/2 4/4/2 
f 8/8/2 13/13/2 15/15/2 
f 8/8/2 9/9/2 13/13/2 
f 8/8/2 12/12/2 9/9/2 
f 8/8/2 1/1/2 12/12/2 
f 5/5/2 1/1/2 8/8/2 
f 24/24/3 9/43/3 25/25/3 
f 33/33/3 11/45/3 16/51/3 
f 22/22/3 11/45/3 33/33/3 
f 22/22/3 9/43/3 11/45/3 
f 19/19/3 9/43/3 22/22/3 
f 25/25/3 9/43/3 19/19/3 
f 13/47/3 33/33/3 16/51/3 
f 13/47/3 31/31/3 33/33/3 
f 13/47/3 30/30/3 31/31/3 
f 13/47/3 28/28/3 30/30/3 
f 9/43/3 28/28/3 13/47/3 
f 9/43/3 24/24/3 28/28/3 
f 6/40/4 15/50/4 14/49/4 
f 15/50/4 6/40/4 8/42/4 
f 12/46/5 3/37/5 10/44/5 
f 3/37/5 12/46/5 1/35/5 
f 2/36/6 5/39/6 7/41/6 
f 5/39/6 2/36/6 4/38/6 
f 1/35/7 2/36/7 3/37/7 
f 2/36/7 1/35/7 4/38/7 
f 5/39/8 6/40/8 7/41/8 
f 6/40/8 5/39/8 8/42/8 
f 9/43/9 10/44/9 11/45/9 
f 10/44/9 9/43/9 12/46/9 
f 13/48/10 14/49/10 15/50/10 
f 14/49/10 13/48/10 16/52/10 
f 24/58/11 29/29/11 28/61/11 
f 29/29/11 24/58/11 26/60/11 
f 32/32/12 22/56/12 33/64/12 
f 22/56/12 32/32/12 20/54/12 
f 20/20/3 17/17/3 21/21/3 
f 17/17/3 34/34/3 18/18/3 
f 17/17/3 32/32/3 34/34/3 
f 17/17/3 20/54/3 32/32/3 
f 23/23/13 29/29/13 26/26/13 
f 27/27/13 17/17/13 18/18/13 
f 27/27/13 23/23/13 17/17/13 
f 29/29/13 23/23/13 27/27/13 
f 23/23/14 21/21/14 17/17/14 
f 21/21/14 25/59/14 19/53/14 
f 21/21/14 23/57/14 25/59/14 
f 34/34/15 27/27/15 18/18/15 
f 30/62/15 34/34/15 31/63/15 
f 27/27/15 34/34/15 30/62/15 
f 19/53/16 20/20/16 21/21/16 
f 20/20/16 19/53/16 22/55/16 
f 23/57/17 24/58/17 25/59/17 
f 24/58/17 23/57/17 26/60/17 
f 27/27/18 28/61/18 29/29/18 
f 28/61/18 27/27/18 30/62/18 
f 31/63/19 32/32/19 33/64/19 
f 32/32/19 31/63/19 34/34/19 
# 64 faces

