# 3ds Max Wavefront OBJ Exporter v0.97b - (c)2007 guruware
# File Created: 17.06.2012 21:01:07

#
# object Spacedragon_61
#

v  0.0394 0.4790 2.5672
v  0.0295 0.4028 1.9802
v  0.0541 0.4274 1.9787
v  0.0148 0.4545 2.5687
v  -0.0148 0.4545 2.5687
v  -0.0541 0.4274 1.9787
v  -0.0295 0.4028 1.9802
v  -0.0394 0.4790 2.5672
v  0.0394 0.5085 2.5653
v  0.0295 0.5109 1.9735
v  0.0148 0.5331 2.5638
v  0.0541 0.4863 1.9750
v  -0.0148 0.5331 2.5638
v  -0.0541 0.4863 1.9750
v  -0.0394 0.5085 2.5653
v  -0.0295 0.5109 1.9735
v  0.0148 0.6180 2.2034
v  -0.0148 0.6180 2.2034
v  0.0148 0.5130 2.0302
v  0.0098 0.6173 2.1838
v  0.0148 0.6179 2.2011
v  0.0098 0.5124 2.0128
v  0.0098 0.5983 2.2042
v  0.0148 0.5163 2.1190
v  0.0148 0.6106 2.2037
v  0.0098 0.5168 2.1309
v  -0.0098 0.5983 2.2042
v  -0.0148 0.5163 2.1190
v  -0.0098 0.5168 2.1309
v  -0.0148 0.6106 2.2037
v  -0.0148 0.5130 2.0302
v  -0.0098 0.6173 2.1838
v  -0.0098 0.5124 2.0128
v  -0.0148 0.6179 2.2011
# 34 vertices

vn 0.0000 -0.0625 -0.9980
vn -0.0000 0.0625 0.9980
vn 0.0000 0.9993 -0.0376
vn -0.9997 0.0016 0.0249
vn 0.9997 0.0016 0.0249
vn -0.0000 -0.9962 0.0875
vn 0.7067 -0.7031 0.0795
vn -0.7067 -0.7031 0.0795
vn 0.7067 0.7075 -0.0089
vn -0.7067 0.7075 -0.0089
vn -0.0000 -0.6685 0.7437
vn 0.0000 0.8523 -0.5231
vn -0.0000 0.0376 0.9993
vn 1.0000 -0.0000 0.0000
vn -1.0000 0.0000 -0.0000
vn 0.8660 0.4261 -0.2616
vn 0.8660 -0.3342 0.3719
vn -0.8660 -0.3342 0.3719
vn -0.8660 0.4261 -0.2616
# 19 vertex normals

vt 0.7947 0.6827 -0.0427
vt 0.6169 0.6827 0.1130
vt 0.5776 0.6434 -0.1130
vt 0.7555 0.6434 0.0427
vt 0.7085 0.6434 0.0427
vt 0.5776 0.8160 -0.1130
vt 0.6169 0.7767 0.1130
vt 0.6693 0.6827 -0.0427
vt 0.7947 0.7297 0.0427
vt 0.4443 0.6827 0.1130
vt 0.7555 0.7689 0.0427
vt 0.4835 0.6434 0.1130
vt 0.7085 0.7689 0.0427
vt 0.4835 0.8160 0.1130
vt 0.6693 0.7297 0.0427
vt 0.4443 0.7767 0.1130
vt 0.0531 0.9621 -0.7395
vt 0.0000 0.9008 -0.7395
vt 0.8872 0.0217 0.4062
vt 0.0730 0.9726 -0.7395
vt 0.0524 0.9626 -0.7395
vt 0.9144 0.0275 0.4353
vt 0.0467 0.9441 0.7395
vt 0.7457 0.0235 0.4062
vt 0.0507 0.9571 -0.7395
vt 0.7293 0.0282 0.4062
vt 0.0326 0.9139 -0.7395
vt 0.7361 0.0664 0.4062
vt 0.7331 0.0633 0.4062
vt 0.0292 0.9839 -0.7395
vt 0.8813 0.0647 0.4062
vt 0.0097 0.8679 -0.7395
vt 0.9112 0.0569 0.4062
vt 0.0016 0.8973 -0.7395
vt 0.0144 0.3465 0.4062
vt 0.9586 0.3873 0.4062
vt 0.9529 0.4426 0.4062
vt 0.0200 0.2912 0.4062
vt 0.0237 0.2443 -0.4353
vt 0.9687 0.2378 0.4062
vt 0.9658 0.2933 0.4062
vt 0.0267 0.1887 0.4062
vt 0.0084 0.3933 0.4062
vt 0.9767 0.0000 0.4062
vt 0.9325 0.5910 0.4062
vt 0.0000 0.4482 0.4062
vt 0.0276 0.0386 0.4062
vt 0.9410 0.5361 0.4062
vt 0.0283 0.0861 0.4062
vt 0.9713 0.1436 0.4062
vt 0.0281 0.1416 0.4062
vt 0.9714 0.0881 0.4062
vt 0.0386 0.9937 -0.7395
vt 0.3628 0.9302 -0.7395
vt 0.3895 0.9441 -0.7069
vt 0.2342 0.8749 -0.7395
vt 0.2145 0.8657 -0.7395
vt 0.0225 0.9652 -0.7395
vt 0.2060 0.8146 -0.7395
vt 0.2004 0.8356 -0.7395
vt 0.0121 0.9051 -0.7395
vt 0.2551 0.6728 -0.7395
vt 0.0701 1.0000 -0.7395
vt 0.3919 0.9756 -0.7395
vt 0.2632 0.6434 -0.7395
# 65 texture coords

g Spacedragon_61
f 16/16/1 6/6/1 14/14/1 
f 12/12/1 16/16/1 10/10/1 
f 3/3/1 16/16/1 12/12/1 
f 2/2/1 16/16/1 3/3/1 
f 7/7/1 16/16/1 2/2/1 
f 6/6/1 16/16/1 7/7/1 
f 9/9/2 4/4/2 1/1/2 
f 5/5/2 15/15/2 8/8/2 
f 5/5/2 13/13/2 15/15/2 
f 5/5/2 11/11/2 13/13/2 
f 5/5/2 9/9/2 11/11/2 
f 4/4/2 9/9/2 5/5/2 
f 16/52/3 28/28/3 31/31/3 
f 16/52/3 22/22/3 10/44/3 
f 16/52/3 33/33/3 22/22/3 
f 10/44/3 13/49/3 11/47/3 
f 16/52/3 31/31/3 33/33/3 
f 19/19/3 10/44/3 22/22/3 
f 24/24/3 10/44/3 19/19/3 
f 24/24/3 13/49/3 10/44/3 
f 26/26/3 13/49/3 24/24/3 
f 29/29/3 13/49/3 26/26/3 
f 28/28/3 13/49/3 29/29/3 
f 28/28/3 16/52/3 13/49/3 
f 6/40/4 15/51/4 14/50/4 
f 15/51/4 6/40/4 8/42/4 
f 1/35/5 12/48/5 9/43/5 
f 12/48/5 1/35/5 3/37/5 
f 2/36/6 5/39/6 7/41/6 
f 5/39/6 2/36/6 4/38/6 
f 1/35/7 2/36/7 3/37/7 
f 2/36/7 1/35/7 4/38/7 
f 5/39/8 6/40/8 7/41/8 
f 6/40/8 5/39/8 8/42/8 
f 9/43/9 10/45/9 11/46/9 
f 10/45/9 9/43/9 12/48/9 
f 13/49/10 14/50/10 15/51/10 
f 14/50/10 13/49/10 16/52/10 
f 26/57/11 27/27/11 29/60/11 
f 27/27/11 26/57/11 23/23/11 
f 20/20/12 33/64/12 32/63/12 
f 33/64/12 20/20/12 22/55/12 
f 18/18/3 32/32/3 34/34/3 
f 21/21/3 18/53/3 17/17/3 
f 20/20/3 18/53/3 21/21/3 
f 32/63/3 18/53/3 20/20/3 
f 25/25/13 27/58/13 23/23/13 
f 18/53/13 25/25/13 17/17/13 
f 30/30/13 25/25/13 18/53/13 
f 27/58/13 25/25/13 30/30/13 
f 25/25/14 21/21/14 17/17/14 
f 21/21/14 24/56/14 19/54/14 
f 21/21/14 25/25/14 24/56/14 
f 34/34/15 30/61/15 18/18/15 
f 28/59/15 34/34/15 31/62/15 
f 30/61/15 34/34/15 28/59/15 
f 19/54/16 20/20/16 21/21/16 
f 20/20/16 19/54/16 22/55/16 
f 23/23/17 24/56/17 25/25/17 
f 24/56/17 23/23/17 26/57/17 
f 27/27/18 28/59/18 29/60/18 
f 28/59/18 27/27/18 30/61/18 
f 31/62/19 32/32/19 33/65/19 
f 32/32/19 31/62/19 34/34/19 
# 64 faces

