# 3ds Max Wavefront OBJ Exporter v0.97b - (c)2007 guruware
# File Created: 18.06.2012 20:27:06

#
# object wing_2
#

v  -1.0746 0.4977 -0.3686
v  -0.9384 0.4613 0.3308
v  -0.9290 0.4637 0.3290
v  -1.0544 0.4870 -0.3643
v  -0.9173 0.4604 0.3264
v  -0.9106 0.4534 0.3247
v  -1.0618 0.4941 -0.3661
v  -1.0812 0.4740 -0.3684
v  -0.9357 0.4400 0.3292
v  -0.9424 0.4470 0.3310
v  -1.0583 0.4727 -0.3642
v  -0.9239 0.4367 0.3266
v  -1.0684 0.4704 -0.3659
v  -0.9146 0.4392 0.3248
v  -1.0829 0.5000 -0.3703
v  -1.0821 0.4948 -0.3581
v  -1.0794 0.4966 -0.3694
v  -1.5598 0.6409 0.3751
v  -1.5543 0.6343 0.3799
v  -1.5698 0.6436 0.3682
v  -1.1058 0.5013 -0.3745
v  -1.5780 0.6407 0.3635
v  -1.0958 0.5036 -0.3728
v  -1.5765 0.6199 0.3685
v  -1.1098 0.4871 -0.3744
v  -1.1024 0.4799 -0.3726
v  -1.5820 0.6265 0.3637
v  -1.0861 0.4806 -0.3580
v  -1.0896 0.4763 -0.3701
v  -1.0848 0.4774 -0.3693
v  -1.5583 0.6200 0.3801
v  -1.5665 0.6172 0.3754
v  -1.0855 0.4830 -0.3580
v  -0.9417 0.4494 0.3310
v  -1.5576 0.6224 0.3800
v  -0.9390 0.4589 0.3309
v  -1.0828 0.4924 -0.3581
v  -1.5550 0.6319 0.3799
# 38 vertices

vn -0.9411 0.2656 0.2093
vn 0.8025 -0.2194 0.5548
vn -0.2697 -0.9629 0.0094
vn 0.2697 0.9629 -0.0094
vn -0.8025 0.2194 -0.5548
vn 0.1781 -0.0595 -0.9822
vn 0.9411 -0.2656 -0.2093
vn 0.2040 -0.0476 0.9778
vn -0.5322 0.1572 0.8319
vn -0.2370 0.9667 0.0965
vn 0.7041 0.7011 -0.1128
vn -0.7041 -0.7011 0.1128
vn 0.2370 -0.9667 -0.0965
vn 0.6348 0.7242 0.2693
vn -0.1677 0.9436 -0.2856
vn -0.6348 -0.7242 -0.2693
vn 0.1677 -0.9436 0.2856
vn 0.0762 -0.0116 0.9970
# 18 vertex normals

vt 0.3674 0.5866 -0.0871
vt 0.5015 0.0557 -0.0871
vt 0.5220 0.0511 -0.0871
vt 0.3753 0.5853 -0.0871
vt 0.5150 0.0529 -0.0871
vt 0.5109 0.0579 -0.0064
vt 0.3745 0.5852 -0.0871
vt 0.3706 0.5958 -0.0871
vt 0.5258 0.0626 -0.0871
vt 0.5271 0.0611 -0.0871
vt 0.3829 0.5891 0.0871
vt 0.5190 0.0621 -0.0871
vt 0.3779 0.5941 -0.0871
vt 0.5186 0.0619 -0.0871
vt 0.3674 0.5844 -0.0871
vt 0.3685 0.5827 -0.0871
vt 0.3674 0.5859 -0.0871
vt 0.0096 0.0000 -0.0871
vt 0.9976 0.2429 -0.0871
vt 0.0096 0.0001 -0.0871
vt 0.3621 0.5794 -0.0871
vt 0.9999 0.2478 -0.0871
vt 0.3644 0.5814 -0.0871
vt 0.9972 0.2485 -0.0871
vt 0.3542 0.5851 -0.0871
vt 0.3571 0.5904 -0.0871
vt 0.0000 0.0060 -0.0871
vt 0.3922 0.5982 -0.0871
vt 0.3875 0.6010 -0.0871
vt 0.3670 0.5946 -0.0871
vt 0.9956 0.2476 -0.0871
vt 0.9964 0.2480 -0.0871
vt 0.3922 0.5982 -0.0871
vt 0.5268 0.0608 -0.0871
vt 0.9952 0.2478 -0.0871
vt 0.5015 0.0557 -0.0871
vt 0.3685 0.5827 -0.0871
vt 0.0097 0.0000 -0.0871
vt 0.5279 0.0529 -0.0871
vt 0.5015 0.0557 -0.0871
vt 0.5109 0.0579 -0.0871
vt 0.3906 0.5979 -0.0871
vt 0.3822 0.5917 -0.0871
vt 0.9990 0.2445 -0.0871
vt 0.0097 0.0000 -0.0871
vt 1.0000 0.2462 -0.0871
vt 0.0096 0.0001 -0.0871
vt 0.3875 0.6010 -0.0871
vt 0.3875 0.6010 -0.0871
vt 0.9978 0.2488 -0.0871
vt 0.3632 0.5942 -0.0871
vt 0.3891 0.5987 -0.0871
vt 0.5283 0.0545 -0.0871
vt 0.9971 0.2430 -0.0871
# 54 texture coords

g wing_2
f 36/36/1 16/16/1 37/37/1 
f 16/16/1 36/36/1 2/2/1 
f 38/38/2 16/16/2 19/45/2 
f 16/16/2 38/38/2 37/37/2 
f 32/32/3 26/49/3 29/29/3 
f 26/49/3 32/32/3 24/24/3 
f 18/18/4 23/23/4 20/20/4 
f 23/23/4 18/18/4 15/15/4 
f 22/47/5 25/25/5 27/27/5 
f 25/25/5 22/47/5 21/21/5 
f 13/13/6 4/4/6 11/11/6 
f 23/23/6 25/25/6 21/21/6 
f 23/23/6 26/26/6 25/25/6 
f 15/15/6 26/26/6 23/23/6 
f 15/15/6 29/51/6 26/26/6 
f 17/17/6 29/51/6 15/15/6 
f 17/17/6 30/30/6 29/51/6 
f 1/1/6 30/30/6 17/17/6 
f 7/7/6 30/30/6 1/1/6 
f 7/7/6 8/8/6 30/30/6 
f 7/7/6 13/13/6 8/8/6 
f 4/4/6 13/13/6 7/7/6 
f 4/4/7 14/14/7 11/11/7 
f 14/14/7 4/4/7 6/6/7 
f 36/53/8 3/3/8 2/39/8 
f 6/6/8 12/12/8 14/14/8 
f 5/5/8 12/12/8 6/6/8 
f 3/3/8 12/12/8 5/5/8 
f 3/3/8 9/9/8 12/12/8 
f 3/3/8 10/10/8 9/9/8 
f 3/3/8 34/34/8 10/10/8 
f 3/3/8 36/53/8 34/34/8 
f 34/34/1 28/28/1 10/10/1 
f 28/28/1 34/34/1 33/33/1 
f 33/33/2 31/31/2 28/28/2 
f 31/31/2 33/33/2 35/35/2 
f 18/44/9 38/54/9 19/19/9 
f 27/50/9 20/46/9 22/22/9 
f 24/24/9 20/46/9 27/50/9 
f 32/32/9 20/46/9 24/24/9 
f 32/32/9 18/44/9 20/46/9 
f 31/31/9 18/44/9 32/32/9 
f 35/35/9 18/44/9 31/31/9 
f 38/54/9 18/44/9 35/35/9 
f 9/9/3 13/43/3 12/12/3 
f 13/43/3 9/9/3 8/42/3 
f 7/7/4 3/40/4 5/41/4 
f 3/40/4 7/7/4 1/1/4 
f 16/16/10 1/1/10 17/17/10 
f 1/1/10 2/2/10 3/40/10 
f 1/1/10 16/16/10 2/2/10 
f 4/4/11 5/41/11 6/6/11 
f 5/41/11 4/4/11 7/7/11 
f 8/42/12 28/28/12 30/52/12 
f 28/28/12 9/9/12 10/10/12 
f 28/28/12 8/42/12 9/9/12 
f 11/11/13 12/12/13 13/43/13 
f 12/12/13 11/11/13 14/14/13 
f 15/15/14 16/16/14 17/17/14 
f 16/16/14 18/18/14 19/45/14 
f 16/16/14 15/15/14 18/18/14 
f 20/20/15 21/21/15 22/47/15 
f 21/21/15 20/20/15 23/23/15 
f 24/24/16 25/48/16 26/49/16 
f 25/48/16 24/24/16 27/50/16 
f 28/28/17 29/29/17 30/52/17 
f 29/29/17 31/31/17 32/32/17 
f 29/29/17 28/28/17 31/31/17 
f 38/54/18 34/34/18 36/53/18 
f 34/34/18 38/54/18 35/35/18 
f 33/33/3 34/34/3 35/35/3 
f 36/36/4 37/37/4 38/38/4 
# 72 faces

