# 3ds Max Wavefront OBJ Exporter v0.97b - (c)2007 guruware
# File Created: 18.06.2012 20:27:19

#
# object wing_3
#

v  -1.1107 0.4968 -0.4371
v  -2.1922 0.5421 -0.4157
v  -1.1111 0.4905 -0.4447
v  -1.1118 0.4676 -0.4323
v  -2.1933 0.5130 -0.4109
v  -1.1118 0.4711 -0.4416
v  -1.1093 0.5051 -0.3860
v  -1.1093 0.5016 -0.3768
v  -2.1911 0.5489 -0.3742
v  -1.1104 0.4760 -0.3812
v  -1.1100 0.4822 -0.3736
v  -2.1922 0.5198 -0.3694
v  -1.1098 0.4871 -0.3744
v  -1.1094 0.4968 -0.3760
v  -2.1910 0.5454 -0.3650
v  -2.1916 0.5308 -0.3626
v  -2.1926 0.5359 -0.4233
v  -2.1933 0.5165 -0.4201
v  -2.1918 0.5260 -0.3618
v  -2.1912 0.5405 -0.3642
v  -1.5816 0.6362 0.3621
v  -1.5820 0.6265 0.3637
v  -2.1920 0.5229 -0.3656
v  -2.1933 0.5147 -0.4155
v  -2.1934 0.5141 -0.4197
v  -2.1911 0.5471 -0.3696
v  -2.1924 0.5390 -0.4195
v  -2.1925 0.5383 -0.4237
v  -2.1906 0.5500 -0.3518
v  -1.5815 0.6387 0.3617
v  -2.1911 0.5430 -0.3646
v  -1.5879 0.6446 0.3662
v  -1.6042 0.6426 0.3802
v  -2.2367 0.5460 -0.3876
v  -2.2434 0.5422 -0.3814
v  -1.5975 0.6463 0.3741
v  -1.6048 0.6280 0.3826
v  -2.2377 0.5217 -0.3836
v  -1.5984 0.6220 0.3780
v  -2.2440 0.5277 -0.3790
v  -2.1915 0.5258 -0.3479
v  -1.5821 0.6241 0.3641
v  -1.5888 0.6204 0.3702
v  -2.1917 0.5284 -0.3622
# 44 vertices

vn -0.9989 0.0419 0.0198
vn 0.0172 0.1614 0.9867
vn 0.9989 -0.0419 -0.0198
vn -0.0263 -0.1610 -0.9866
vn -0.0381 -0.9861 0.1619
vn 0.0381 0.9861 -0.1619
vn 0.0199 0.7735 -0.6335
vn -0.0462 -0.9345 -0.3531
vn 0.0417 0.9346 0.3532
vn -0.0244 -0.7733 0.6336
vn 0.8458 0.0544 0.5308
vn 0.7677 -0.1326 -0.6269
vn -0.6396 -0.1004 -0.7621
vn 0.6396 0.1004 0.7621
vn -0.7677 0.1326 0.6269
vn 0.4169 0.7876 -0.4537
vn -0.3508 0.9203 0.1732
vn -0.4169 -0.7876 0.4537
vn 0.3508 -0.9203 -0.1732
# 19 vertex normals

vt 0.6173 0.5718 -0.4447
vt 0.0095 0.4657 -0.4447
vt 0.6182 0.5739 -0.4447
vt 0.6316 0.5734 -0.4447
vt 0.9826 0.0280 -0.4447
vt 0.6280 0.5769 -0.4447
vt 0.6222 0.5441 -0.4447
vt 0.6244 0.5428 -0.4447
vt 0.0127 0.4480 -0.4447
vt 0.6354 0.5469 -0.4447
vt 0.6316 0.5423 -0.4447
vt 0.9633 0.0137 -0.4447
vt 0.6287 0.5428 -0.3359
vt 0.6263 0.5425 -0.4447
vt 0.0100 0.4507 -0.4447
vt 0.9598 0.0092 -0.4447
vt 0.9931 0.0333 -0.4447
vt 0.9836 0.0293 -0.4447
vt 0.9611 0.0102 -0.4447
vt 0.0083 0.4516 -0.4447
vt 0.4113 0.0775 -0.4447
vt 0.4112 0.0764 0.4447
vt 0.9634 0.0116 -0.4447
vt 0.9833 0.0290 -0.4447
vt 0.9836 0.0295 -0.4447
vt 0.0119 0.4502 -0.4447
vt 0.0094 0.4634 -0.4447
vt 0.0092 0.4637 -0.4447
vt 0.0100 0.4492 -0.4447
vt 0.4112 0.0780 -0.4447
vt 0.0084 0.4516 -0.4447
vt 0.4108 0.0786 -0.4447
vt 0.4094 0.0803 -0.4447
vt 0.0054 0.4512 -0.4447
vt 0.9975 0.0000 -0.4447
vt 0.4100 0.0794 -0.4447
vt 0.4055 0.0760 -0.4447
vt 0.9885 0.0017 -0.4447
vt 0.4075 0.0750 -0.4447
vt 0.9901 0.0000 -0.4447
vt 0.9575 0.0067 -0.4447
vt 0.4113 0.0765 -0.4447
vt 0.4098 0.0750 -0.4447
vt 0.9597 0.0092 -0.4447
vt 0.6638 0.5644 -0.4447
vt 0.6541 0.5585 -0.4447
vt 0.6542 0.5585 -0.4447
vt 0.6287 0.5427 -0.4447
vt 0.6287 0.5428 -0.4447
vt 0.0091 0.4637 -0.4447
vt 1.0000 0.0043 -0.4447
vt 0.0055 0.4511 -0.4447
vt 0.4115 0.0766 -0.4447
vt 0.4115 0.0766 -0.4447
vt 0.0000 0.4451 -0.4447
vt 0.4112 0.0760 -0.4447
vt 0.4114 0.0765 -0.4447
# 57 texture coords

g wing_3
f 27/27/1 9/9/1 2/2/1 
f 9/9/1 27/27/1 26/26/1 
f 44/44/2 13/13/2 16/16/2 
f 13/13/2 19/19/2 11/49/2 
f 13/13/2 44/44/2 19/19/2 
f 10/10/3 14/14/3 13/13/3 
f 10/10/3 13/13/3 11/11/3 
f 14/14/3 7/7/3 8/8/3 
f 1/1/3 6/6/3 3/3/3 
f 1/1/3 4/4/3 6/6/3 
f 7/7/3 4/4/3 1/1/3 
f 7/7/3 10/10/3 4/4/3 
f 14/14/3 10/10/3 7/7/3 
f 14/14/2 31/31/2 20/20/2 
f 31/31/2 8/8/2 15/15/2 
f 31/31/2 14/14/2 8/8/2 
f 12/12/1 24/24/1 5/5/1 
f 24/24/1 12/12/1 23/23/1 
f 17/17/4 6/47/4 18/18/4 
f 6/47/4 17/17/4 3/45/4 
f 12/12/5 4/46/5 10/48/5 
f 4/46/5 12/12/5 5/5/5 
f 1/1/6 9/9/6 7/7/6 
f 9/9/6 1/1/6 2/2/6 
f 1/1/7 27/27/7 2/2/7 
f 27/27/7 3/3/7 17/50/7 
f 27/27/7 1/1/7 3/3/7 
f 24/24/8 4/46/8 5/5/8 
f 4/46/8 18/18/8 6/47/8 
f 4/46/8 24/24/8 18/18/8 
f 7/7/9 15/15/9 8/8/9 
f 26/26/9 7/7/9 9/9/9 
f 15/15/9 7/7/9 26/26/9 
f 19/19/10 10/48/10 11/49/10 
f 10/48/10 23/23/10 12/12/10 
f 10/48/10 19/19/10 23/23/10 
f 21/21/11 13/13/11 14/14/11 
f 13/13/11 21/21/11 22/22/11 
f 22/22/5 16/16/5 13/13/5 
f 20/20/6 21/21/6 14/14/6 
f 27/27/3 17/50/3 28/28/3 
f 18/18/3 24/24/3 25/25/3 
f 15/15/3 29/29/3 31/31/3 
f 29/29/3 15/15/3 26/26/3 
f 42/42/12 16/16/12 22/22/12 
f 16/16/12 42/42/12 44/44/12 
f 34/51/13 40/40/13 35/35/13 
f 17/50/13 34/34/13 28/28/13 
f 38/38/13 18/18/13 25/25/13 
f 38/38/13 17/17/13 18/18/13 
f 38/38/13 34/51/13 17/17/13 
f 40/40/13 34/51/13 38/38/13 
f 19/19/3 41/41/3 23/23/3 
f 41/41/3 19/19/3 44/44/3 
f 31/31/12 21/21/12 20/20/12 
f 21/21/12 31/31/12 30/30/12 
f 32/32/14 21/21/14 30/30/14 
f 22/22/14 43/43/14 42/56/14 
f 37/37/14 36/36/14 33/33/14 
f 39/39/14 36/36/14 37/37/14 
f 39/39/14 32/32/14 36/36/14 
f 43/43/14 32/32/14 39/39/14 
f 22/22/14 32/32/14 43/43/14 
f 21/21/14 32/32/14 22/22/14 
f 33/33/15 40/55/15 37/37/15 
f 40/55/15 33/33/15 35/52/15 
f 41/41/5 38/38/5 23/23/5 
f 24/24/5 38/38/5 25/25/5 
f 23/23/5 38/38/5 24/24/5 
f 39/54/5 41/41/5 43/57/5 
f 38/38/5 41/41/5 39/54/5 
f 34/34/6 29/29/6 26/26/6 
f 34/34/6 27/27/6 28/28/6 
f 34/34/6 26/26/6 27/27/6 
f 32/32/6 34/34/6 36/36/6 
f 29/29/6 34/34/6 32/32/6 
f 29/29/16 30/30/16 31/31/16 
f 30/30/16 29/29/16 32/32/16 
f 33/33/17 34/34/17 35/52/17 
f 34/34/17 33/33/17 36/36/17 
f 37/53/18 38/38/18 39/54/18 
f 38/38/18 37/53/18 40/40/18 
f 41/41/19 42/42/19 43/57/19 
f 42/42/19 41/41/19 44/44/19 
# 84 faces

