# 3ds Max Wavefront OBJ Exporter v0.97b - (c)2007 guruware
# File Created: 18.06.2012 20:26:53

#
# object Spacedragon_43
#

v  -0.1908 0.2847 0.1476
v  -0.1463 0.2743 0.1969
v  -0.1466 0.2651 0.1969
v  -0.1460 0.2695 0.1969
v  -0.1908 0.2847 0.1969
v  -0.1876 0.2885 0.1969
v  -0.1836 0.2916 0.1969
v  -0.1949 0.2670 0.1969
v  -0.1937 0.2622 0.1969
v  -0.1915 0.2577 0.1969
v  -0.1884 0.2537 0.1969
v  -0.1790 0.2938 0.1969
v  -0.1742 0.2950 0.1969
v  -0.1846 0.2504 0.1969
v  -0.1805 0.2481 0.1969
v  -0.1695 0.2952 0.1969
v  -0.1650 0.2946 0.1969
v  -0.1762 0.2467 0.1969
v  -0.1717 0.2461 0.1969
v  -0.1607 0.2932 0.1969
v  -0.1566 0.2909 0.1969
v  -0.1670 0.2463 0.1969
v  -0.1622 0.2476 0.1969
v  -0.1528 0.2877 0.1969
v  -0.1497 0.2837 0.1969
v  -0.1576 0.2498 0.1969
v  -0.1536 0.2529 0.1969
v  -0.1475 0.2791 0.1969
v  -0.1504 0.2567 0.1969
v  -0.1481 0.2608 0.1969
v  -0.1622 0.2476 0.0492
v  -0.1536 0.2529 0.0492
v  -0.1576 0.2498 0.0492
v  -0.1836 0.2916 0.0492
v  -0.1790 0.2938 0.0492
v  -0.1742 0.2950 0.0492
v  -0.1915 0.2577 0.0492
v  -0.1884 0.2537 0.0492
v  -0.1846 0.2504 0.0492
v  -0.1805 0.2481 0.0492
v  -0.1695 0.2952 0.0492
v  -0.1650 0.2946 0.0492
v  -0.1762 0.2467 0.0492
v  -0.1717 0.2461 0.0492
v  -0.1607 0.2932 0.0492
v  -0.1566 0.2909 0.0492
v  -0.1670 0.2463 0.0492
v  -0.1528 0.2877 0.0492
v  -0.1497 0.2837 0.0492
v  -0.1475 0.2791 0.0492
v  -0.1463 0.2743 0.0492
v  -0.1460 0.2695 0.0492
v  -0.1466 0.2651 0.0492
v  -0.1481 0.2608 0.0492
v  -0.1504 0.2567 0.0492
v  -0.1949 0.2670 0.1476
v  -0.1843 0.2911 0.1424
v  -0.1918 0.2882 0.1476
v  -0.1876 0.2885 0.1476
v  -0.1805 0.2932 0.1386
v  -0.1840 0.2913 0.0492
v  -0.1678 0.2827 0.0492
v  -0.1805 0.2932 0.0559
v  -0.1974 0.2643 0.1476
v  -0.1919 0.2584 0.1424
v  -0.1937 0.2622 0.1476
v  -0.1895 0.2549 0.1386
v  -0.1917 0.2581 0.0492
v  -0.1734 0.2587 0.0492
v  -0.1895 0.2549 0.0559
v  -0.1952 0.2714 0.1969
v  -0.1957 0.2715 0.1476
v  -0.1952 0.2714 0.1476
v  -0.9146 0.4392 0.3248
v  -0.1717 0.2659 0.1969
v  -0.1934 0.2811 0.1476
v  -0.1930 0.2809 0.1969
v  -0.1930 0.2809 0.1476
v  -0.9123 0.4488 0.3248
v  -0.1695 0.2755 0.1969
v  -1.0544 0.4895 -0.4331
v  -1.0600 0.4656 -0.4331
v  -1.0617 0.4584 -0.3789
v  -1.0617 0.4584 -0.4186
v  -1.0528 0.4967 -0.3789
v  -1.0528 0.4967 -0.4186
v  -1.0600 0.4656 -0.3642
v  -1.0544 0.4895 -0.3642
v  -1.0561 0.4823 -0.3642
v  -1.0583 0.4727 -0.3642
v  -1.0981 0.4971 -0.5217
v  -1.0790 0.4926 -0.5217
v  -1.0834 0.4736 -0.5217
v  -1.1026 0.4781 -0.5217
v  -1.1299 0.4692 -0.3642
v  -1.1227 0.4625 -0.4528
v  -1.1227 0.4625 -0.3642
v  -1.1299 0.4692 -0.4528
v  -1.1269 0.4664 -0.4627
v  -1.1093 0.5200 -0.4528
v  -1.1187 0.5172 -0.3642
v  -1.1093 0.5200 -0.3642
v  -1.1187 0.5172 -0.4528
v  -1.1148 0.5183 -0.4627
v  -1.0516 0.5015 -0.3642
v  -1.0588 0.5082 -0.4528
v  -1.0588 0.5082 -0.3642
v  -1.0516 0.5015 -0.4528
v  -1.0546 0.5043 -0.4627
v  -1.0687 0.4499 -0.4528
v  -1.0620 0.4571 -0.3642
v  -1.0687 0.4499 -0.3642
v  -1.0620 0.4571 -0.4528
v  -1.0666 0.4522 -0.4622
# 114 vertices

vn -0.5279 0.8493 -0.0000
vn -0.4025 0.9154 -0.0000
vn -0.5551 0.8318 -0.0000
vn -0.5429 0.8398 -0.0000
vn -0.3427 0.9394 -0.0000
vn -0.9087 0.4174 -0.0000
vn -0.8218 0.5697 -0.0000
vn -0.6909 0.7229 -0.0000
vn -0.6908 0.7231 -0.0000
vn 0.9989 -0.0462 0.0000
vn 0.9738 -0.2272 0.0000
vn 0.9891 0.1472 0.0000
vn 0.9394 0.3427 0.0000
vn 0.8493 0.5279 0.0000
vn 0.7231 0.6908 0.0000
vn 0.5697 0.8218 0.0000
vn 0.4006 0.9162 0.0000
vn 0.2272 0.9738 0.0000
vn 0.0462 0.9989 0.0000
vn -0.1472 0.9891 -0.0000
vn -0.0000 0.0000 1.0000
vn -0.4872 0.1137 0.8659
vn -0.9395 -0.3425 -0.0000
vn -0.8493 -0.5279 -0.0000
vn -0.9394 -0.3427 -0.0000
vn -0.7661 -0.6427 -0.0000
vn -0.8585 -0.5128 -0.0000
vn -0.7231 -0.6908 -0.0000
vn -0.9891 -0.1472 -0.0000
vn -0.9996 0.0279 -0.0000
vn 0.9162 -0.4006 0.0000
vn 0.8218 -0.5697 0.0000
vn 0.6908 -0.7231 0.0000
vn 0.5279 -0.8493 0.0000
vn 0.3427 -0.9394 0.0000
vn 0.1472 -0.9891 0.0000
vn -0.0462 -0.9989 -0.0000
vn -0.2272 -0.9738 -0.0000
vn -0.4006 -0.9162 -0.0000
vn -0.5697 -0.8218 -0.0000
vn -0.8659 -0.5002 -0.0000
vn 0.0000 0.0000 -1.0000
vn 0.4559 -0.1064 -0.8837
vn -0.0468 0.9002 0.4329
vn 0.4247 0.7902 -0.4418
vn -0.4404 -0.7865 0.4329
vn 0.0312 -0.8966 -0.4418
vn 0.1611 -0.0376 0.9862
vn -0.9522 0.2222 0.2095
vn -0.9738 0.2272 -0.0000
vn -0.9171 0.2140 -0.3363
vn 0.9171 -0.2140 -0.3363
vn 0.2184 0.9361 -0.2756
vn -0.2184 -0.9361 -0.2756
vn -0.6837 -0.7298 -0.0000
vn -0.2901 0.9570 -0.0000
vn 0.6837 0.7298 0.0000
vn 0.7298 -0.6837 0.0000
# 58 vertex normals

vt 0.4171 0.0346 0.2015
vt 0.6038 0.0116 0.2015
vt 0.6021 0.0147 0.2015
vt 0.6029 0.0132 0.2015
vt 0.3977 0.0216 0.2015
vt 0.4030 0.0226 0.2015
vt 0.4083 0.0234 0.2015
vt 0.6096 0.0261 0.2015
vt 0.6084 0.0257 0.2015
vt 0.6074 0.0251 0.2015
vt 0.6067 0.0243 0.2015
vt 0.4137 0.0237 0.2015
vt 0.4158 0.0210 0.2015
vt 0.6060 0.0241 0.2015
vt 0.6053 0.0238 0.2015
vt 0.4175 0.0184 0.2015
vt 0.4188 0.0160 0.2015
vt 0.6047 0.0235 0.2015
vt 0.6041 0.0231 0.2015
vt 0.4200 0.0137 0.2015
vt 0.4212 0.0112 0.2015
vt 0.6035 0.0224 0.2015
vt 0.6028 0.0215 0.2015
vt 0.4223 0.0086 0.2015
vt 0.4233 0.0059 0.2015
vt 0.6023 0.0204 0.2015
vt 0.6019 0.0191 0.2015
vt 0.4242 0.0030 0.2015
vt 0.6016 0.0177 0.2015
vt 0.6015 0.0162 0.2015
vt 0.5140 0.0572 0.2015
vt 0.5126 0.0519 0.2015
vt 0.5134 0.0545 0.2015
vt 0.4838 0.0627 0.2015
vt 0.4841 0.0618 0.2015
vt 0.4838 0.0606 0.2015
vt 0.5081 0.0739 0.2015
vt 0.5102 0.0729 0.2015
vt 0.5115 0.0698 0.2015
vt 0.5125 0.0670 0.2015
vt 0.4836 0.0594 0.2015
vt 0.4836 0.0581 0.2015
vt 0.5132 0.0645 0.2015
vt 0.5137 0.0622 0.2015
vt 0.4837 0.0565 0.2015
vt 0.4842 0.0545 0.2015
vt 0.5139 0.0597 0.2015
vt 0.4850 0.0522 0.2015
vt 0.4862 0.0498 0.2015
vt 0.4883 0.0476 0.2015
vt 0.5060 0.0404 0.2015
vt 0.5078 0.0427 0.2015
vt 0.5093 0.0448 0.2015
vt 0.5104 0.0471 0.2015
vt 0.5116 0.0494 0.2015
vt 0.5784 0.0455 0.2015
vt 0.4192 0.0303 0.2015
vt 0.4162 0.0338 0.2015
vt 0.4170 0.0324 0.2015
vt 0.4210 0.0280 0.2015
vt 0.4842 0.0629 0.2015
vt 0.4870 0.0614 0.2015
vt 0.4825 0.0597 0.2015
vt 0.5780 0.0460 0.2015
vt 0.5715 0.0435 0.2015
vt 0.5767 0.0437 0.2015
vt 0.5671 0.0427 0.2015
vt 0.5079 0.0742 0.2015
vt 0.5065 0.0617 0.2015
vt 0.5091 0.0742 0.2015
vt 0.6110 0.0260 0.2015
vt 0.5781 0.0464 0.2015
vt 0.5789 0.0470 0.2015
vt 0.9996 0.5030 0.2015
vt 0.6096 0.0226 0.2015
vt 0.4203 0.0366 0.2015
vt 0.3925 0.0203 0.2015
vt 0.4186 0.0367 0.2015
vt 1.0000 0.5031 -0.2015
vt 0.4070 0.0052 0.2015
vt 0.4968 0.9101 0.2015
vt 0.5157 0.9076 0.2015
vt 0.5569 0.8863 0.2015
vt 0.5282 0.9020 0.2015
vt 0.4570 0.8896 0.2015
vt 0.4839 0.9054 0.2015
vt 0.5648 0.8829 0.2015
vt 0.4452 0.8839 0.2015
vt 0.5653 0.8832 0.2015
vt 0.5653 0.8831 0.2015
vt 0.5595 0.8949 0.2015
vt 0.5581 0.8945 0.2015
vt 0.5585 0.8938 0.2015
vt 0.5593 0.8940 0.2015
vt 0.5641 0.8875 0.2015
vt 0.5611 0.8909 0.2015
vt 0.5641 0.8874 0.2015
vt 0.5616 0.8912 0.2015
vt 0.5612 0.8915 0.2015
vt 0.4699 0.9555 0.2015
vt 0.5667 0.8883 0.2015
vt 0.4259 0.9195 0.2015
vt 0.5637 0.8928 0.2015
vt 0.5631 0.8935 0.2015
vt 0.4480 0.8901 0.2015
vt 0.4910 0.9299 0.2015
vt 0.4466 0.8948 0.2015
vt 0.4960 0.9254 0.2015
vt 0.4976 0.9321 0.2015
vt 0.5584 0.8894 0.2015
vt 0.5621 0.8854 0.2015
vt 0.5624 0.8852 0.2015
vt 0.5237 0.9173 0.2015
vt 0.5581 0.8903 0.2015
vt 0.4249 0.0000 0.2015
vt 0.4906 0.0457 0.2015
vt 0.0000 0.5031 -0.2015
vt 0.6108 0.0204 0.2015
vt 0.4433 0.8823 0.2015
vt 0.4391 0.8778 0.2015
vt 0.5111 0.9759 0.2015
vt 0.5188 0.9663 0.2015
vt 0.5642 0.8933 0.2015
vt 0.5672 0.8882 0.2015
vt 0.4731 0.9620 0.2015
vt 0.5573 0.8892 0.2015
vt 0.5290 0.9221 0.2015
vt 0.5569 0.8885 0.2015
vt 0.5571 0.8879 0.2015
# 129 texture coords

g Spacedragon_43
f 7/7/1 60/60/2 57/57/3 
f 63/63/2 34/34/1 61/61/4 
f 63/63/2 35/35/5 34/34/1 
f 77/77/6 1/1/7 78/78/6 
f 5/5/7 1/1/7 77/77/6 
f 5/5/7 59/59/8 1/1/7 
f 6/6/9 59/59/8 5/5/7 
f 52/52/10 3/3/11 53/53/11 
f 52/52/10 4/4/10 3/3/11 
f 51/51/12 4/4/10 52/52/10 
f 51/51/12 2/2/12 4/4/10 
f 50/50/13 2/115/12 51/116/12 
f 50/50/13 28/28/13 2/115/12 
f 49/49/14 28/28/13 50/50/13 
f 49/49/14 25/25/14 28/28/13 
f 48/48/15 25/25/14 49/49/14 
f 48/48/15 24/24/15 25/25/14 
f 46/46/16 24/24/15 48/48/15 
f 46/46/16 21/21/16 24/24/15 
f 45/45/17 21/21/16 46/46/16 
f 45/45/17 20/20/17 21/21/16 
f 42/42/18 20/20/17 45/45/17 
f 42/42/18 17/17/18 20/20/17 
f 42/42/18 16/16/19 17/17/18 
f 41/41/19 16/16/19 42/42/18 
f 41/41/19 13/13/20 16/16/19 
f 36/36/20 13/13/20 41/41/19 
f 36/36/20 12/12/5 13/13/20 
f 35/35/5 12/12/5 36/36/20 
f 63/63/2 12/12/5 35/35/5 
f 60/60/2 12/12/5 63/63/2 
f 7/7/1 59/59/8 6/6/9 
f 7/7/1 57/57/3 59/59/8 
f 60/60/2 7/7/1 12/12/5 
f 1/1/21 76/76/21 78/78/21 
f 58/58/21 1/1/21 59/59/21 
f 76/76/21 1/1/21 58/58/21 
f 76/76/22 88/88/22 89/119/22 
f 88/88/22 76/76/22 58/58/22 
f 66/66/23 10/10/24 9/9/25 
f 37/37/24 70/70/26 68/68/27 
f 38/38/28 70/70/26 37/37/24 
f 56/56/29 71/71/30 73/73/30 
f 56/56/29 8/8/29 71/71/30 
f 66/66/23 8/8/29 56/56/29 
f 66/66/23 9/9/25 8/8/29 
f 30/30/31 53/53/11 3/3/11 
f 30/30/31 54/54/31 53/53/11 
f 30/30/31 55/55/32 54/54/31 
f 29/29/32 55/55/32 30/30/31 
f 29/29/32 32/32/33 55/55/32 
f 27/27/33 32/32/33 29/29/32 
f 27/27/33 33/33/34 32/32/33 
f 26/26/34 33/33/34 27/27/33 
f 26/26/34 31/31/35 33/33/34 
f 23/23/35 31/31/35 26/26/34 
f 23/23/35 47/47/36 31/31/35 
f 22/22/36 47/47/36 23/23/35 
f 19/19/37 47/47/36 22/22/36 
f 19/19/37 44/44/37 47/47/36 
f 18/18/38 44/44/37 19/19/37 
f 18/18/38 43/43/38 44/44/37 
f 15/15/39 43/43/38 18/18/38 
f 15/15/39 40/40/39 43/43/38 
f 14/14/40 40/40/39 15/15/39 
f 14/14/40 39/39/40 40/40/39 
f 11/11/28 39/39/40 14/14/40 
f 11/11/28 38/38/28 39/39/40 
f 11/11/28 70/70/26 38/38/28 
f 11/11/28 67/67/26 70/70/26 
f 10/10/24 67/67/26 11/11/28 
f 10/10/24 65/65/41 67/67/26 
f 10/10/24 66/66/23 65/65/41 
f 2/2/21 3/3/21 4/4/21 
f 80/80/21 5/5/21 77/77/21 
f 80/80/21 6/6/21 5/5/21 
f 80/80/21 7/7/21 6/6/21 
f 8/8/21 75/75/21 71/71/21 
f 9/9/21 75/75/21 8/8/21 
f 10/10/21 75/75/21 9/9/21 
f 11/11/21 75/75/21 10/10/21 
f 80/80/21 12/12/21 7/7/21 
f 80/80/21 13/13/21 12/12/21 
f 14/14/21 75/75/21 11/11/21 
f 15/15/21 75/75/21 14/14/21 
f 80/80/21 16/16/21 13/13/21 
f 80/80/21 17/17/21 16/16/21 
f 18/18/21 75/75/21 15/15/21 
f 19/19/21 75/75/21 18/18/21 
f 80/80/21 20/20/21 17/17/21 
f 80/80/21 21/21/21 20/20/21 
f 22/22/21 75/75/21 19/19/21 
f 23/23/21 75/75/21 22/22/21 
f 80/80/21 24/24/21 21/21/21 
f 80/80/21 25/25/21 24/24/21 
f 26/26/21 75/75/21 23/23/21 
f 27/27/21 75/75/21 26/26/21 
f 80/80/21 28/28/21 25/25/21 
f 80/80/21 2/115/21 28/28/21 
f 29/29/21 75/75/21 27/27/21 
f 30/30/21 75/75/21 29/29/21 
f 30/30/21 80/118/21 75/75/21 
f 30/30/21 2/2/21 80/118/21 
f 3/3/21 2/2/21 30/30/21 
f 31/31/42 32/32/42 33/33/42 
f 34/34/42 62/62/42 61/61/42 
f 35/35/42 62/62/42 34/34/42 
f 36/36/42 62/62/42 35/35/42 
f 69/69/42 37/37/42 68/68/42 
f 69/69/42 38/38/42 37/37/42 
f 69/69/42 39/39/42 38/38/42 
f 69/69/42 40/40/42 39/39/42 
f 41/41/42 62/62/42 36/36/42 
f 42/42/42 62/62/42 41/41/42 
f 69/69/42 43/43/42 40/40/42 
f 69/69/42 44/44/42 43/43/42 
f 45/45/42 62/62/42 42/42/42 
f 46/46/42 62/62/42 45/45/42 
f 69/69/42 47/47/42 44/44/42 
f 69/69/42 31/31/42 47/47/42 
f 48/48/42 62/62/42 46/46/42 
f 49/49/42 62/62/42 48/48/42 
f 49/49/42 69/69/42 62/62/42 
f 50/50/42 69/69/42 49/49/42 
f 51/116/42 69/69/42 50/50/42 
f 52/52/42 69/69/42 51/51/42 
f 53/53/42 69/69/42 52/52/42 
f 54/54/42 69/69/42 53/53/42 
f 54/54/42 31/31/42 69/69/42 
f 55/55/42 31/31/42 54/54/42 
f 32/32/42 31/31/42 55/55/42 
f 72/72/21 56/56/21 73/73/21 
f 56/56/21 64/64/21 66/66/21 
f 56/56/21 72/72/21 64/64/21 
f 70/70/38 83/83/38 84/84/38 
f 83/83/38 70/70/38 67/67/38 
f 85/85/18 63/63/18 86/86/18 
f 63/63/18 85/85/18 60/60/18 
f 64/64/22 90/90/22 87/87/22 
f 90/90/22 64/64/22 72/72/22 
f 81/81/43 69/69/43 82/82/43 
f 69/69/43 81/81/43 62/62/43 
f 57/57/44 58/58/44 59/59/44 
f 88/88/44 60/60/44 85/85/44 
f 58/58/44 60/60/44 88/88/44 
f 58/58/44 57/57/44 60/60/44 
f 86/86/45 61/61/45 81/81/45 
f 81/81/45 61/61/45 62/62/45 
f 61/61/45 86/86/45 63/63/45 
f 64/64/46 65/65/46 66/66/46 
f 67/67/46 87/87/46 83/83/46 
f 67/67/46 64/64/46 87/87/46 
f 65/65/46 64/64/46 67/67/46 
f 68/68/47 84/84/47 82/82/47 
f 68/68/47 82/82/47 69/69/47 
f 84/84/47 68/68/47 70/70/47 
f 80/118/48 74/74/48 75/75/48 
f 74/74/48 80/118/48 79/79/48 
f 89/89/49 74/74/49 79/79/49 
f 74/74/49 89/89/49 90/90/49 
f 71/71/38 72/72/38 73/73/38 
f 74/74/38 71/71/38 75/75/38 
f 72/72/38 74/74/38 90/90/38 
f 72/72/38 71/71/38 74/74/38 
f 76/76/18 77/77/18 78/78/18 
f 77/77/18 79/117/18 80/80/18 
f 79/117/18 76/76/18 89/119/18 
f 77/77/18 76/76/18 79/117/18 
f 113/113/11 81/81/11 82/82/11 
f 111/111/11 83/83/11 87/87/11 
f 113/126/11 83/83/11 111/111/11 
f 113/126/11 84/129/11 83/83/11 
f 113/126/11 82/128/11 84/129/11 
f 85/85/11 105/105/11 88/88/11 
f 85/85/11 108/108/11 105/105/11 
f 86/86/11 108/108/11 85/85/11 
f 81/81/11 108/108/11 86/86/11 
f 81/81/11 113/113/11 108/108/11 
f 87/87/21 112/112/21 111/111/21 
f 107/107/21 88/88/21 105/105/21 
f 102/102/21 88/88/21 107/107/21 
f 102/102/21 89/119/21 88/88/21 
f 102/102/21 90/120/21 89/119/21 
f 102/124/21 87/87/21 90/90/21 
f 101/101/21 87/87/21 102/124/21 
f 95/95/21 87/87/21 101/101/21 
f 97/97/21 87/87/21 95/95/21 
f 112/112/21 87/87/21 97/97/21 
f 98/98/50 101/101/50 103/103/50 
f 101/101/50 98/98/50 95/95/50 
f 99/99/51 91/91/51 94/94/51 
f 104/104/51 98/98/51 103/103/51 
f 91/91/51 98/98/51 104/104/51 
f 91/91/51 99/99/51 98/98/51 
f 94/94/42 92/92/42 93/93/42 
f 92/92/42 94/94/42 91/91/42 
f 92/92/52 114/114/52 93/93/52 
f 113/113/52 109/109/52 108/108/52 
f 113/113/52 92/122/52 109/109/52 
f 114/127/52 92/122/52 113/113/52 
f 112/112/38 96/96/38 110/110/38 
f 96/96/38 112/112/38 97/97/38 
f 100/100/18 107/107/18 106/106/18 
f 107/107/18 100/100/18 102/102/18 
f 109/109/53 100/100/53 106/106/53 
f 91/121/53 109/109/53 92/122/53 
f 104/125/53 109/109/53 91/121/53 
f 100/100/53 109/109/53 104/125/53 
f 93/93/54 99/99/54 94/94/54 
f 96/96/54 114/114/54 110/110/54 
f 96/96/54 93/93/54 114/114/54 
f 99/99/54 93/93/54 96/96/54 
f 95/95/55 96/96/55 97/97/55 
f 96/96/55 98/98/55 99/99/55 
f 96/96/55 95/95/55 98/98/55 
f 100/123/56 101/101/56 102/124/56 
f 103/103/56 100/123/56 104/104/56 
f 101/101/56 100/123/56 103/103/56 
f 105/105/57 106/106/57 107/107/57 
f 106/106/57 108/108/57 109/109/57 
f 106/106/57 105/105/57 108/108/57 
f 110/110/58 111/111/58 112/112/58 
f 113/126/58 110/110/58 114/114/58 
f 111/111/58 110/110/58 113/126/58 
# 224 faces

